G75*
%MOIN*%
%OFA0B0*%
%FSLAX25Y25*%
%IPPOS*%
%LPD*%
%AMOC8*
5,1,8,0,0,1.08239X$1,22.5*
%
%ADD10C,0.01600*%
%ADD11R,0.03366X0.00153*%
%ADD12R,0.05049X0.00153*%
%ADD13R,0.05355X0.00153*%
%ADD14R,0.05508X0.00153*%
%ADD15R,0.05814X0.00153*%
%ADD16R,0.02601X0.00153*%
%ADD17R,0.05967X0.00153*%
%ADD18R,0.06120X0.00153*%
%ADD19R,0.07191X0.00153*%
%ADD20R,0.08568X0.00153*%
%ADD21R,0.06273X0.00153*%
%ADD22R,0.09639X0.00153*%
%ADD23R,0.06426X0.00153*%
%ADD24R,0.10710X0.00153*%
%ADD25R,0.06426X0.00153*%
%ADD26R,0.11628X0.00153*%
%ADD27R,0.06579X0.00153*%
%ADD28R,0.12393X0.00153*%
%ADD29R,0.13158X0.00153*%
%ADD30R,0.13770X0.00153*%
%ADD31R,0.06732X0.00153*%
%ADD32R,0.14535X0.00153*%
%ADD33R,0.15147X0.00153*%
%ADD34R,0.06732X0.00153*%
%ADD35R,0.15606X0.00153*%
%ADD36R,0.06885X0.00153*%
%ADD37R,0.16065X0.00153*%
%ADD38R,0.16677X0.00153*%
%ADD39R,0.02448X0.00153*%
%ADD40R,0.02448X0.00153*%
%ADD41R,0.07038X0.00153*%
%ADD42R,0.01989X0.00153*%
%ADD43R,0.08109X0.00153*%
%ADD44R,0.02142X0.00153*%
%ADD45R,0.01836X0.00153*%
%ADD46R,0.07497X0.00153*%
%ADD47R,0.01683X0.00153*%
%ADD48R,0.07191X0.00153*%
%ADD49R,0.01683X0.00153*%
%ADD50R,0.01530X0.00153*%
%ADD51R,0.03978X0.00153*%
%ADD52R,0.05814X0.00153*%
%ADD53R,0.04131X0.00153*%
%ADD54R,0.03978X0.00153*%
%ADD55R,0.01377X0.00153*%
%ADD56R,0.04743X0.00153*%
%ADD57R,0.11934X0.00153*%
%ADD58R,0.01071X0.00153*%
%ADD59R,0.00918X0.00153*%
%ADD60R,0.10251X0.00153*%
%ADD61R,0.05814X0.00153*%
%ADD62R,0.12699X0.00153*%
%ADD63R,0.05661X0.00153*%
%ADD64R,0.01530X0.00153*%
%ADD65R,0.02142X0.00153*%
%ADD66R,0.04437X0.00153*%
%ADD67R,0.01377X0.00153*%
%ADD68R,0.10863X0.00153*%
%ADD69R,0.03978X0.00153*%
%ADD70R,0.06579X0.00153*%
%ADD71R,0.06426X0.00153*%
%ADD72R,0.13158X0.00153*%
%ADD73R,0.02907X0.00153*%
%ADD74R,0.04131X0.00153*%
%ADD75R,0.02754X0.00153*%
%ADD76R,0.11475X0.00153*%
%ADD77R,0.13464X0.00153*%
%ADD78R,0.11781X0.00153*%
%ADD79R,0.07344X0.00153*%
%ADD80R,0.03825X0.00153*%
%ADD81R,0.03672X0.00153*%
%ADD82R,0.12240X0.00153*%
%ADD83R,0.07803X0.00153*%
%ADD84R,0.07956X0.00153*%
%ADD85R,0.13923X0.00153*%
%ADD86R,0.04284X0.00153*%
%ADD87R,0.01224X0.00153*%
%ADD88R,0.03519X0.00153*%
%ADD89R,0.08262X0.00153*%
%ADD90R,0.08415X0.00153*%
%ADD91R,0.14076X0.00153*%
%ADD92R,0.13005X0.00153*%
%ADD93R,0.12546X0.00153*%
%ADD94R,0.14229X0.00153*%
%ADD95R,0.04437X0.00153*%
%ADD96R,0.00918X0.00153*%
%ADD97R,0.01071X0.00153*%
%ADD98R,0.03213X0.00153*%
%ADD99R,0.12699X0.00153*%
%ADD100R,0.14382X0.00153*%
%ADD101R,0.12546X0.00153*%
%ADD102R,0.04590X0.00153*%
%ADD103R,0.00918X0.00153*%
%ADD104R,0.03060X0.00153*%
%ADD105R,0.13311X0.00153*%
%ADD106R,0.12852X0.00153*%
%ADD107R,0.00765X0.00153*%
%ADD108R,0.00765X0.00153*%
%ADD109R,0.13617X0.00153*%
%ADD110R,0.14688X0.00153*%
%ADD111R,0.04896X0.00153*%
%ADD112R,0.02754X0.00153*%
%ADD113R,0.13923X0.00153*%
%ADD114R,0.14841X0.00153*%
%ADD115R,0.00612X0.00153*%
%ADD116R,0.05202X0.00153*%
%ADD117R,0.00612X0.00153*%
%ADD118R,0.00765X0.00153*%
%ADD119R,0.02601X0.00153*%
%ADD120R,0.14229X0.00153*%
%ADD121R,0.13005X0.00153*%
%ADD122R,0.13311X0.00153*%
%ADD123R,0.14994X0.00153*%
%ADD124R,0.05202X0.00153*%
%ADD125R,0.14994X0.00153*%
%ADD126R,0.02295X0.00153*%
%ADD127R,0.15147X0.00153*%
%ADD128R,0.00612X0.00153*%
%ADD129R,0.15300X0.00153*%
%ADD130R,0.00612X0.00153*%
%ADD131R,0.02295X0.00153*%
%ADD132R,0.13617X0.00153*%
%ADD133R,0.15300X0.00153*%
%ADD134R,0.06120X0.00153*%
%ADD135R,0.04590X0.00153*%
%ADD136R,0.04284X0.00153*%
%ADD137R,0.04437X0.00153*%
%ADD138R,0.04284X0.00153*%
%ADD139R,0.04131X0.00153*%
%ADD140R,0.04131X0.00153*%
%ADD141R,0.03825X0.00153*%
%ADD142R,0.04284X0.00153*%
%ADD143R,0.03978X0.00153*%
%ADD144R,0.07497X0.00153*%
%ADD145R,0.07650X0.00153*%
%ADD146R,0.08109X0.00153*%
%ADD147R,0.01836X0.00153*%
%ADD148R,0.08721X0.00153*%
%ADD149R,0.16524X0.00153*%
%ADD150R,0.15453X0.00153*%
%ADD151R,0.08721X0.00153*%
%ADD152R,0.14382X0.00153*%
%ADD153R,0.12087X0.00153*%
%ADD154R,0.11475X0.00153*%
%ADD155R,0.11169X0.00153*%
%ADD156R,0.10710X0.00153*%
%ADD157R,0.05967X0.00153*%
%ADD158R,0.06120X0.00153*%
%ADD159R,0.06120X0.00153*%
%ADD160R,0.09027X0.00153*%
%ADD161R,0.14841X0.00153*%
%ADD162R,0.04743X0.00153*%
%ADD163R,0.09027X0.00153*%
%ADD164R,0.07038X0.00153*%
%ADD165R,0.12393X0.00153*%
%ADD166R,0.13464X0.00153*%
%ADD167R,0.07344X0.00153*%
%ADD168R,0.12087X0.00153*%
%ADD169R,0.11322X0.00153*%
%ADD170R,0.08415X0.00153*%
%ADD171R,0.08262X0.00153*%
%ADD172R,0.10557X0.00153*%
%ADD173R,0.10251X0.00153*%
%ADD174R,0.04590X0.00153*%
%ADD175R,0.09333X0.00153*%
%ADD176R,0.07650X0.00153*%
%ADD177R,0.03366X0.00153*%
%ADD178R,0.05049X0.00153*%
%ADD179R,0.06885X0.00153*%
%ADD180R,0.14688X0.00153*%
%ADD181R,0.13770X0.00153*%
%ADD182R,0.06273X0.00153*%
%ADD183R,0.14535X0.00153*%
%ADD184R,0.12087X0.00153*%
%ADD185R,0.05508X0.00153*%
%ADD186R,0.11781X0.00153*%
%ADD187R,0.09792X0.00153*%
%ADD188R,0.08109X0.00153*%
%ADD189R,0.02754X0.00153*%
%ADD190C,0.00400*%
%ADD191R,0.01142X0.03150*%
%ADD192R,0.01500X0.05000*%
%ADD193R,0.03150X0.01142*%
%ADD194R,0.05000X0.01500*%
%ADD195R,0.00591X0.01181*%
%ADD196R,0.01181X0.01181*%
%ADD197C,0.00800*%
%ADD198C,0.01682*%
%ADD199C,0.00039*%
%ADD200C,0.00500*%
%ADD201C,0.00295*%
D10*
X0001800Y0001800D02*
X0336800Y0001800D01*
X0336800Y0211800D01*
X0001800Y0211800D01*
X0001800Y0001800D01*
D11*
X0032575Y0103057D03*
X0032575Y0108106D03*
X0038083Y0107647D03*
X0043438Y0108106D03*
X0043438Y0103057D03*
X0038083Y0103516D03*
X0042826Y0123406D03*
X0195520Y0098314D03*
D12*
X0195137Y0098467D03*
X0198197Y0104281D03*
X0179072Y0114379D03*
X0172034Y0114532D03*
X0123992Y0114379D03*
X0105326Y0114073D03*
X0092321Y0102445D03*
X0042902Y0122335D03*
X0033263Y0122335D03*
X0033263Y0112084D03*
X0038006Y0108718D03*
X0038006Y0102445D03*
D13*
X0038006Y0102292D03*
X0038006Y0099232D03*
X0038006Y0108871D03*
X0033263Y0112390D03*
X0033263Y0122029D03*
X0123839Y0106117D03*
X0195290Y0098620D03*
X0198197Y0104740D03*
D14*
X0198121Y0104893D03*
X0198121Y0105046D03*
X0195367Y0098773D03*
X0097906Y0105964D03*
X0093469Y0111778D03*
X0042826Y0112390D03*
X0042826Y0112543D03*
X0033187Y0112543D03*
X0042826Y0122029D03*
D15*
X0195520Y0098926D03*
D16*
X0118331Y0118204D03*
X0038006Y0112084D03*
X0038006Y0106882D03*
X0038006Y0106729D03*
X0038006Y0104434D03*
X0038006Y0104281D03*
X0038006Y0099079D03*
D17*
X0033263Y0113002D03*
X0033263Y0121417D03*
X0092321Y0102598D03*
X0118178Y0117898D03*
X0123533Y0114532D03*
X0164078Y0114532D03*
X0179531Y0114532D03*
X0184886Y0117898D03*
X0195596Y0099079D03*
D18*
X0195673Y0099232D03*
X0195673Y0099385D03*
X0198121Y0105811D03*
X0033187Y0113155D03*
X0033187Y0121111D03*
X0033187Y0121264D03*
D19*
X0033263Y0119122D03*
X0033263Y0118816D03*
X0033263Y0115603D03*
X0033263Y0115450D03*
X0033263Y0115297D03*
X0042902Y0115450D03*
X0038006Y0099385D03*
X0092321Y0102904D03*
X0196208Y0101680D03*
X0198044Y0107188D03*
D20*
X0094234Y0117898D03*
X0038083Y0099538D03*
D21*
X0038006Y0101986D03*
X0038006Y0109177D03*
X0033263Y0113461D03*
X0195749Y0099538D03*
X0198044Y0105964D03*
D22*
X0094310Y0117592D03*
X0038006Y0109789D03*
X0038006Y0101374D03*
X0038006Y0099691D03*
D23*
X0042826Y0113461D03*
X0042826Y0113614D03*
X0042826Y0113767D03*
X0042826Y0120499D03*
X0042826Y0120652D03*
X0042826Y0120805D03*
X0033187Y0120805D03*
X0033187Y0120652D03*
X0033187Y0113767D03*
X0033187Y0113614D03*
X0169510Y0117745D03*
X0198121Y0106270D03*
X0198121Y0106117D03*
X0195826Y0099691D03*
D24*
X0038083Y0099844D03*
D25*
X0077404Y0102751D03*
X0150844Y0102751D03*
X0195826Y0099844D03*
D26*
X0134473Y0122488D03*
X0038083Y0099997D03*
D27*
X0042902Y0113920D03*
X0033263Y0113920D03*
X0033263Y0120346D03*
X0033263Y0120499D03*
X0118178Y0117745D03*
X0184886Y0117745D03*
X0195902Y0100303D03*
X0195902Y0100150D03*
X0195902Y0099997D03*
D28*
X0094463Y0110554D03*
X0094310Y0115297D03*
X0094310Y0115450D03*
X0094310Y0115603D03*
X0094310Y0115756D03*
X0062639Y0121570D03*
X0038006Y0100150D03*
D29*
X0038083Y0100303D03*
X0079240Y0104434D03*
X0079240Y0104740D03*
X0094081Y0104740D03*
X0094081Y0104893D03*
X0094081Y0105046D03*
X0094081Y0105199D03*
X0094081Y0108718D03*
X0094081Y0108871D03*
X0094081Y0109024D03*
X0094081Y0109177D03*
X0119938Y0104434D03*
X0119938Y0104281D03*
X0119938Y0116215D03*
X0152527Y0105199D03*
X0152527Y0105046D03*
X0152527Y0104893D03*
X0152527Y0104740D03*
X0167674Y0115756D03*
X0167674Y0115909D03*
X0183127Y0115756D03*
X0183127Y0115603D03*
X0183127Y0115450D03*
X0183127Y0115297D03*
D30*
X0135544Y0113002D03*
X0135544Y0121723D03*
X0135544Y0103057D03*
X0038083Y0100456D03*
X0038083Y0110707D03*
D31*
X0038083Y0109330D03*
X0042826Y0114073D03*
X0042826Y0114379D03*
X0042826Y0120040D03*
X0042826Y0120193D03*
X0042826Y0120346D03*
X0033187Y0120193D03*
X0033187Y0120040D03*
X0033187Y0114073D03*
X0195979Y0100609D03*
X0195979Y0100456D03*
X0198121Y0106423D03*
D32*
X0135926Y0103822D03*
X0135926Y0112084D03*
X0135926Y0113614D03*
X0135926Y0113767D03*
X0135926Y0120805D03*
X0062639Y0120193D03*
X0062639Y0120040D03*
X0062639Y0104893D03*
X0062639Y0104740D03*
X0038006Y0100609D03*
X0038006Y0111931D03*
D33*
X0038006Y0100762D03*
X0062639Y0105658D03*
X0062639Y0118969D03*
X0136232Y0118969D03*
D34*
X0195979Y0100762D03*
X0198121Y0106576D03*
X0042826Y0114226D03*
X0033187Y0114226D03*
X0038083Y0101833D03*
D35*
X0038083Y0100915D03*
D36*
X0033263Y0114379D03*
X0033263Y0114532D03*
X0033263Y0114685D03*
X0033263Y0119734D03*
X0042902Y0114532D03*
X0150767Y0102904D03*
X0196055Y0101221D03*
X0196055Y0101068D03*
X0196055Y0100915D03*
X0198044Y0106729D03*
D37*
X0038006Y0110095D03*
X0038006Y0101068D03*
D38*
X0038006Y0101221D03*
D39*
X0038083Y0104740D03*
X0038083Y0106423D03*
X0030739Y0109789D03*
X0030739Y0101374D03*
X0110605Y0118204D03*
D40*
X0045274Y0109789D03*
X0045274Y0101374D03*
D41*
X0042826Y0114685D03*
X0042826Y0114838D03*
X0042826Y0114991D03*
X0042826Y0115297D03*
X0042826Y0119122D03*
X0042826Y0119275D03*
X0042826Y0119428D03*
X0042826Y0119581D03*
X0042826Y0119734D03*
X0033187Y0119581D03*
X0033187Y0119428D03*
X0033187Y0119275D03*
X0033187Y0114991D03*
X0033187Y0114838D03*
X0077404Y0102904D03*
X0118102Y0102904D03*
X0118102Y0117592D03*
X0169510Y0117592D03*
X0184810Y0117592D03*
X0198121Y0107035D03*
X0198121Y0106882D03*
X0196132Y0101527D03*
X0196132Y0101374D03*
D42*
X0030356Y0101527D03*
X0030356Y0109636D03*
D43*
X0038006Y0109636D03*
X0038006Y0101527D03*
X0077480Y0103363D03*
X0198044Y0108259D03*
X0198044Y0108565D03*
D44*
X0045733Y0109636D03*
X0045733Y0101527D03*
D45*
X0046039Y0101680D03*
X0029974Y0101680D03*
X0042826Y0124018D03*
X0093469Y0111931D03*
D46*
X0092321Y0103057D03*
X0118178Y0103057D03*
X0118178Y0117439D03*
X0150767Y0103057D03*
X0169433Y0117439D03*
X0184886Y0117439D03*
X0198044Y0107647D03*
X0038006Y0101680D03*
X0033263Y0116827D03*
X0033263Y0116980D03*
X0033263Y0117286D03*
X0033263Y0117439D03*
X0033263Y0117592D03*
D47*
X0029744Y0101833D03*
X0046268Y0101833D03*
D48*
X0042902Y0118969D03*
X0033263Y0118969D03*
X0196208Y0101833D03*
D49*
X0046268Y0109330D03*
X0029744Y0109330D03*
X0029591Y0109177D03*
X0029591Y0101986D03*
X0033263Y0124018D03*
D50*
X0029362Y0109024D03*
X0029209Y0108871D03*
X0029056Y0108718D03*
X0028903Y0108565D03*
X0028597Y0108259D03*
X0028291Y0107800D03*
X0027985Y0107188D03*
X0027832Y0106882D03*
X0027832Y0106729D03*
X0027679Y0106270D03*
X0027679Y0106117D03*
X0027679Y0105964D03*
X0027679Y0105811D03*
X0027679Y0105505D03*
X0027679Y0105352D03*
X0027679Y0105199D03*
X0027679Y0105046D03*
X0027679Y0104893D03*
X0027832Y0104434D03*
X0027832Y0104281D03*
X0027985Y0103975D03*
X0028291Y0103363D03*
X0028597Y0102904D03*
X0028903Y0102598D03*
X0029056Y0102445D03*
X0029209Y0102292D03*
X0029362Y0102139D03*
X0046498Y0101986D03*
X0046651Y0102139D03*
X0046804Y0102292D03*
X0047416Y0102904D03*
X0047569Y0103057D03*
X0047875Y0103516D03*
X0048028Y0103822D03*
X0048181Y0104281D03*
X0048334Y0104740D03*
X0048334Y0104893D03*
X0048334Y0105046D03*
X0048334Y0106117D03*
X0048334Y0106270D03*
X0048334Y0106423D03*
X0048181Y0106882D03*
X0048028Y0107341D03*
X0047875Y0107647D03*
X0047569Y0108106D03*
X0047416Y0108259D03*
X0046804Y0108871D03*
X0046651Y0109024D03*
X0046498Y0109177D03*
D51*
X0109840Y0117745D03*
X0114736Y0113614D03*
X0114736Y0113461D03*
X0114736Y0113155D03*
X0114736Y0113002D03*
X0114736Y0112849D03*
X0114736Y0112696D03*
X0114736Y0112543D03*
X0114736Y0112390D03*
X0114736Y0112084D03*
X0114736Y0111931D03*
X0114736Y0111778D03*
X0114736Y0111625D03*
X0114736Y0111472D03*
X0114736Y0111166D03*
X0114736Y0111013D03*
X0114736Y0110860D03*
X0114736Y0110707D03*
X0114736Y0110554D03*
X0114736Y0110248D03*
X0114736Y0110095D03*
X0114736Y0109942D03*
X0114736Y0109789D03*
X0114736Y0109636D03*
X0114736Y0109330D03*
X0114736Y0109177D03*
X0114736Y0109024D03*
X0114736Y0108871D03*
X0114736Y0108718D03*
X0114736Y0108565D03*
X0114736Y0108259D03*
X0114736Y0108106D03*
X0114736Y0107953D03*
X0114736Y0107800D03*
X0114736Y0107647D03*
X0114736Y0107341D03*
X0114736Y0107188D03*
X0114736Y0107035D03*
X0114736Y0106882D03*
X0197815Y0101986D03*
X0200722Y0110095D03*
X0200722Y0110248D03*
X0201640Y0112849D03*
D52*
X0198121Y0105505D03*
X0198121Y0105352D03*
X0198121Y0105199D03*
X0169510Y0117898D03*
X0118102Y0102598D03*
X0042826Y0112696D03*
X0042826Y0112849D03*
X0038083Y0109024D03*
X0033187Y0112849D03*
X0033187Y0121570D03*
X0042826Y0121570D03*
X0042826Y0121723D03*
X0042826Y0121417D03*
X0038083Y0102139D03*
D53*
X0074420Y0106270D03*
X0074420Y0106423D03*
X0109763Y0117592D03*
X0114812Y0113767D03*
X0114812Y0106729D03*
X0195137Y0110860D03*
X0195902Y0108871D03*
X0200645Y0109942D03*
X0201563Y0112543D03*
X0201563Y0112696D03*
X0201716Y0113002D03*
X0201716Y0113155D03*
X0202634Y0115756D03*
X0202634Y0115909D03*
X0202787Y0116215D03*
X0202787Y0116368D03*
X0197891Y0102139D03*
D54*
X0197968Y0102292D03*
X0197968Y0102445D03*
X0198121Y0102598D03*
X0198121Y0102904D03*
X0200263Y0108718D03*
X0200263Y0108871D03*
X0200416Y0109024D03*
X0200416Y0109177D03*
X0200416Y0109330D03*
X0200569Y0109636D03*
X0200569Y0109789D03*
X0200875Y0110554D03*
X0200875Y0110707D03*
X0201028Y0111013D03*
X0201028Y0111166D03*
X0201181Y0111472D03*
X0201334Y0111931D03*
X0201487Y0112390D03*
X0187870Y0112390D03*
X0187870Y0112543D03*
X0187870Y0112696D03*
X0187870Y0112849D03*
X0187870Y0113002D03*
X0187870Y0113155D03*
X0187870Y0113461D03*
X0187870Y0113614D03*
X0187870Y0113767D03*
X0187870Y0113920D03*
X0187870Y0114073D03*
X0187870Y0112084D03*
X0187870Y0111931D03*
X0187870Y0111778D03*
X0187870Y0111625D03*
X0187870Y0111472D03*
X0187870Y0111166D03*
X0187870Y0111013D03*
X0187870Y0110860D03*
X0187870Y0110707D03*
X0187870Y0110554D03*
X0187870Y0110248D03*
X0187870Y0110095D03*
X0187870Y0109942D03*
X0187870Y0109789D03*
X0187870Y0109636D03*
X0187870Y0109330D03*
X0187870Y0109177D03*
X0187870Y0109024D03*
X0187870Y0108871D03*
X0187870Y0108718D03*
X0187870Y0108565D03*
X0187870Y0108259D03*
X0187870Y0108106D03*
X0187870Y0107953D03*
X0187870Y0107800D03*
X0187870Y0107647D03*
X0187870Y0107341D03*
X0187870Y0107188D03*
X0187870Y0107035D03*
X0187870Y0106882D03*
X0187870Y0106729D03*
X0187870Y0106423D03*
X0187870Y0106270D03*
X0187870Y0106117D03*
X0187870Y0105964D03*
X0187870Y0105811D03*
X0187870Y0105505D03*
X0187870Y0105352D03*
X0187870Y0105199D03*
X0187870Y0105046D03*
X0187870Y0104893D03*
X0187870Y0104740D03*
X0187870Y0104434D03*
X0187870Y0104281D03*
X0187870Y0104128D03*
X0187870Y0103975D03*
X0187870Y0103822D03*
X0187870Y0103516D03*
X0187870Y0103363D03*
X0187870Y0103210D03*
X0187870Y0103057D03*
X0187870Y0102904D03*
X0187870Y0102598D03*
X0187870Y0102445D03*
X0178537Y0102445D03*
X0178537Y0102598D03*
X0178537Y0102904D03*
X0178537Y0103057D03*
X0178537Y0103210D03*
X0178537Y0103363D03*
X0178537Y0103516D03*
X0178537Y0103822D03*
X0178537Y0103975D03*
X0178537Y0104128D03*
X0178537Y0104281D03*
X0178537Y0104434D03*
X0178537Y0104740D03*
X0178537Y0104893D03*
X0178537Y0105046D03*
X0178537Y0105199D03*
X0178537Y0105352D03*
X0178537Y0105505D03*
X0178537Y0105811D03*
X0178537Y0105964D03*
X0178537Y0106117D03*
X0178537Y0106270D03*
X0178537Y0106423D03*
X0178537Y0106729D03*
X0178537Y0106882D03*
X0178537Y0107035D03*
X0178537Y0107188D03*
X0178537Y0107341D03*
X0178537Y0107647D03*
X0178537Y0107800D03*
X0178537Y0107953D03*
X0178537Y0108106D03*
X0178537Y0108259D03*
X0178537Y0108565D03*
X0178537Y0108718D03*
X0178537Y0108871D03*
X0178537Y0109024D03*
X0178537Y0109177D03*
X0178537Y0109330D03*
X0178537Y0109636D03*
X0178537Y0109789D03*
X0178537Y0109942D03*
X0178537Y0110095D03*
X0178537Y0110248D03*
X0178537Y0110554D03*
X0178537Y0110707D03*
X0178537Y0110860D03*
X0178537Y0111013D03*
X0178537Y0111166D03*
X0178537Y0111472D03*
X0178537Y0111625D03*
X0178537Y0111778D03*
X0178537Y0111931D03*
X0178537Y0112084D03*
X0178537Y0112390D03*
X0178537Y0112543D03*
X0178537Y0112696D03*
X0178537Y0112849D03*
X0178537Y0113002D03*
X0178537Y0113155D03*
X0178537Y0113461D03*
X0178537Y0113614D03*
X0178537Y0113767D03*
X0178537Y0113920D03*
X0178537Y0117286D03*
X0178537Y0117439D03*
X0178537Y0117592D03*
X0178537Y0117745D03*
X0178537Y0117898D03*
X0172570Y0113920D03*
X0172570Y0113767D03*
X0172570Y0113614D03*
X0172570Y0113461D03*
X0172570Y0113155D03*
X0172570Y0113002D03*
X0172570Y0112849D03*
X0172570Y0112696D03*
X0172570Y0112543D03*
X0172570Y0112390D03*
X0172570Y0112084D03*
X0172570Y0111931D03*
X0172570Y0111778D03*
X0172570Y0111625D03*
X0172570Y0111472D03*
X0172570Y0111166D03*
X0172570Y0111013D03*
X0172570Y0110860D03*
X0172570Y0110707D03*
X0172570Y0110554D03*
X0172570Y0110248D03*
X0172570Y0110095D03*
X0172570Y0109942D03*
X0172570Y0109789D03*
X0172570Y0109636D03*
X0172570Y0109330D03*
X0172570Y0109177D03*
X0172570Y0109024D03*
X0172570Y0108871D03*
X0172570Y0108718D03*
X0172570Y0108565D03*
X0172570Y0108259D03*
X0172570Y0108106D03*
X0172570Y0107953D03*
X0172570Y0107800D03*
X0172570Y0107647D03*
X0172570Y0107341D03*
X0172570Y0107188D03*
X0172570Y0107035D03*
X0172570Y0106882D03*
X0172570Y0106729D03*
X0172570Y0106423D03*
X0172570Y0106270D03*
X0172570Y0106117D03*
X0172570Y0105964D03*
X0172570Y0105811D03*
X0172570Y0105505D03*
X0172570Y0105352D03*
X0172570Y0105199D03*
X0172570Y0105046D03*
X0172570Y0104893D03*
X0172570Y0104740D03*
X0172570Y0104434D03*
X0172570Y0104281D03*
X0172570Y0104128D03*
X0172570Y0103975D03*
X0172570Y0103822D03*
X0172570Y0103516D03*
X0172570Y0103363D03*
X0172570Y0103210D03*
X0172570Y0103057D03*
X0172570Y0102904D03*
X0172570Y0102598D03*
X0172570Y0102445D03*
X0163084Y0102445D03*
X0163084Y0102598D03*
X0163084Y0102904D03*
X0163084Y0103057D03*
X0163084Y0103210D03*
X0163084Y0103363D03*
X0163084Y0103516D03*
X0163084Y0103822D03*
X0163084Y0103975D03*
X0163084Y0104128D03*
X0163084Y0104281D03*
X0163084Y0104434D03*
X0163084Y0104740D03*
X0163084Y0104893D03*
X0163084Y0105046D03*
X0163084Y0105199D03*
X0163084Y0105352D03*
X0163084Y0105505D03*
X0163084Y0105811D03*
X0163084Y0105964D03*
X0163084Y0106117D03*
X0163084Y0106270D03*
X0163084Y0106423D03*
X0163084Y0106729D03*
X0163084Y0106882D03*
X0163084Y0107035D03*
X0163084Y0107188D03*
X0163084Y0107341D03*
X0163084Y0107647D03*
X0163084Y0107800D03*
X0163084Y0107953D03*
X0163084Y0108106D03*
X0163084Y0108259D03*
X0163084Y0108565D03*
X0163084Y0108718D03*
X0163084Y0108871D03*
X0163084Y0109024D03*
X0163084Y0109177D03*
X0163084Y0109330D03*
X0163084Y0109636D03*
X0163084Y0109789D03*
X0163084Y0109942D03*
X0163084Y0110095D03*
X0163084Y0110248D03*
X0163084Y0110554D03*
X0163084Y0110707D03*
X0163084Y0110860D03*
X0163084Y0111013D03*
X0163084Y0111166D03*
X0163084Y0111472D03*
X0163084Y0111625D03*
X0163084Y0111778D03*
X0163084Y0111931D03*
X0163084Y0112084D03*
X0163084Y0112390D03*
X0163084Y0112543D03*
X0163084Y0112696D03*
X0163084Y0112849D03*
X0163084Y0113002D03*
X0163084Y0113155D03*
X0163084Y0113461D03*
X0163084Y0113614D03*
X0163084Y0113767D03*
X0163084Y0117286D03*
X0163084Y0117439D03*
X0163084Y0117592D03*
X0163084Y0117745D03*
X0163084Y0117898D03*
X0157117Y0117898D03*
X0157117Y0117745D03*
X0157117Y0117592D03*
X0157117Y0117439D03*
X0157117Y0117286D03*
X0157117Y0116980D03*
X0157117Y0116827D03*
X0157117Y0116674D03*
X0157117Y0116521D03*
X0157117Y0116368D03*
X0157117Y0116215D03*
X0157117Y0115909D03*
X0157117Y0115756D03*
X0157117Y0115603D03*
X0157117Y0115450D03*
X0157117Y0115297D03*
X0157117Y0114991D03*
X0157117Y0114838D03*
X0157117Y0114685D03*
X0157117Y0114532D03*
X0157117Y0114379D03*
X0157117Y0114073D03*
X0157117Y0113920D03*
X0157117Y0113767D03*
X0157117Y0113614D03*
X0157117Y0113461D03*
X0157117Y0113155D03*
X0157117Y0113002D03*
X0157117Y0112849D03*
X0157117Y0112696D03*
X0157117Y0112543D03*
X0157117Y0112390D03*
X0157117Y0112084D03*
X0157117Y0111931D03*
X0157117Y0111778D03*
X0157117Y0111625D03*
X0157117Y0111472D03*
X0157117Y0111166D03*
X0157117Y0111013D03*
X0157117Y0110860D03*
X0157117Y0110707D03*
X0157117Y0110554D03*
X0157117Y0110248D03*
X0157117Y0110095D03*
X0157117Y0109942D03*
X0157117Y0109789D03*
X0157117Y0109636D03*
X0157117Y0109330D03*
X0157117Y0109177D03*
X0157117Y0109024D03*
X0157117Y0108871D03*
X0157117Y0108718D03*
X0157117Y0108565D03*
X0157117Y0108259D03*
X0157117Y0108106D03*
X0157117Y0107953D03*
X0157117Y0107800D03*
X0157117Y0107647D03*
X0157117Y0107341D03*
X0157117Y0107188D03*
X0157117Y0107035D03*
X0157117Y0106882D03*
X0157117Y0106729D03*
X0157117Y0103363D03*
X0157117Y0103210D03*
X0157117Y0103057D03*
X0157117Y0102904D03*
X0157117Y0102598D03*
X0157117Y0102445D03*
X0147784Y0106423D03*
X0147784Y0106729D03*
X0147784Y0106882D03*
X0147784Y0107035D03*
X0147784Y0107188D03*
X0147784Y0107341D03*
X0147784Y0107647D03*
X0147784Y0107800D03*
X0147784Y0107953D03*
X0147784Y0108106D03*
X0147784Y0108259D03*
X0147784Y0108565D03*
X0147784Y0108718D03*
X0147784Y0108871D03*
X0147784Y0109024D03*
X0147784Y0109177D03*
X0147784Y0109330D03*
X0147784Y0109636D03*
X0147784Y0109789D03*
X0147784Y0109942D03*
X0147784Y0110095D03*
X0147784Y0110248D03*
X0147784Y0110554D03*
X0147784Y0110707D03*
X0147784Y0110860D03*
X0147784Y0111013D03*
X0147784Y0111166D03*
X0147784Y0111472D03*
X0147784Y0111625D03*
X0147784Y0111778D03*
X0147784Y0111931D03*
X0147784Y0112084D03*
X0147784Y0112390D03*
X0147784Y0112543D03*
X0147784Y0112696D03*
X0147784Y0112849D03*
X0147784Y0113002D03*
X0147784Y0113155D03*
X0147784Y0113461D03*
X0147784Y0113614D03*
X0147784Y0113767D03*
X0147784Y0113920D03*
X0147784Y0114073D03*
X0147784Y0114379D03*
X0147784Y0114532D03*
X0147784Y0114685D03*
X0147784Y0114838D03*
X0147784Y0114991D03*
X0147784Y0115297D03*
X0147784Y0115450D03*
X0147784Y0115603D03*
X0147784Y0115756D03*
X0147784Y0115909D03*
X0147784Y0116215D03*
X0147784Y0116368D03*
X0147784Y0116521D03*
X0147784Y0116674D03*
X0147784Y0116827D03*
X0147784Y0116980D03*
X0147784Y0117286D03*
X0147784Y0117439D03*
X0147784Y0117592D03*
X0147784Y0117745D03*
X0147784Y0117898D03*
X0124528Y0117898D03*
X0124528Y0117745D03*
X0124528Y0117592D03*
X0124528Y0117439D03*
X0124528Y0117286D03*
X0124528Y0118204D03*
X0124528Y0118357D03*
X0124528Y0118510D03*
X0124528Y0118663D03*
X0124528Y0118816D03*
X0124528Y0119122D03*
X0124528Y0119275D03*
X0124528Y0119428D03*
X0124528Y0119581D03*
X0124528Y0119734D03*
X0124528Y0120040D03*
X0124528Y0120193D03*
X0124528Y0120346D03*
X0124528Y0120499D03*
X0124528Y0120652D03*
X0124528Y0120805D03*
X0124528Y0121111D03*
X0124528Y0121264D03*
X0124528Y0121417D03*
X0124528Y0121570D03*
X0124528Y0121723D03*
X0124528Y0122029D03*
X0124528Y0122182D03*
X0124528Y0122335D03*
X0124528Y0122488D03*
X0124528Y0122641D03*
X0124528Y0122947D03*
X0124528Y0113920D03*
X0124528Y0113767D03*
X0124528Y0113614D03*
X0124528Y0113461D03*
X0124528Y0113155D03*
X0124528Y0113002D03*
X0124528Y0112849D03*
X0124528Y0112696D03*
X0124528Y0112543D03*
X0124528Y0112390D03*
X0124528Y0112084D03*
X0124528Y0111931D03*
X0124528Y0111778D03*
X0124528Y0111625D03*
X0124528Y0111472D03*
X0124528Y0111166D03*
X0124528Y0111013D03*
X0124528Y0110860D03*
X0124528Y0110707D03*
X0124528Y0110554D03*
X0124528Y0110248D03*
X0124528Y0110095D03*
X0124528Y0109942D03*
X0124528Y0109789D03*
X0124528Y0109636D03*
X0124528Y0109330D03*
X0124528Y0109177D03*
X0124528Y0109024D03*
X0124528Y0108871D03*
X0124528Y0108718D03*
X0124528Y0108565D03*
X0124528Y0108259D03*
X0124528Y0108106D03*
X0124528Y0107953D03*
X0124528Y0107800D03*
X0124528Y0107647D03*
X0124528Y0107341D03*
X0124528Y0107188D03*
X0124528Y0107035D03*
X0124528Y0106882D03*
X0124528Y0106729D03*
X0124528Y0103363D03*
X0124528Y0103210D03*
X0124528Y0103057D03*
X0124528Y0102904D03*
X0124528Y0102598D03*
X0124528Y0102445D03*
X0114889Y0106270D03*
X0114889Y0106423D03*
X0104791Y0106423D03*
X0104791Y0106270D03*
X0104791Y0106117D03*
X0104791Y0105964D03*
X0104791Y0105811D03*
X0104791Y0105505D03*
X0104791Y0105352D03*
X0104791Y0105199D03*
X0104791Y0105046D03*
X0104791Y0104893D03*
X0104791Y0104740D03*
X0104791Y0104434D03*
X0104791Y0104281D03*
X0104791Y0104128D03*
X0104791Y0103975D03*
X0104791Y0103822D03*
X0104791Y0103516D03*
X0104791Y0103363D03*
X0104791Y0103210D03*
X0104791Y0103057D03*
X0104791Y0102904D03*
X0104791Y0102598D03*
X0104791Y0102445D03*
X0098671Y0102445D03*
X0098671Y0102598D03*
X0098671Y0102904D03*
X0098671Y0103057D03*
X0098671Y0103210D03*
X0098671Y0103363D03*
X0098671Y0106729D03*
X0098671Y0106882D03*
X0098671Y0107035D03*
X0098671Y0107188D03*
X0098671Y0107341D03*
X0098671Y0107647D03*
X0098671Y0107800D03*
X0098671Y0107953D03*
X0098671Y0108106D03*
X0098671Y0108259D03*
X0098671Y0108565D03*
X0104791Y0108565D03*
X0104791Y0108718D03*
X0104791Y0108871D03*
X0104791Y0109024D03*
X0104791Y0109177D03*
X0104791Y0109330D03*
X0104791Y0109636D03*
X0104791Y0109789D03*
X0104791Y0109942D03*
X0104791Y0110095D03*
X0104791Y0110248D03*
X0104791Y0110554D03*
X0104791Y0110707D03*
X0104791Y0110860D03*
X0104791Y0111013D03*
X0104791Y0111166D03*
X0104791Y0111472D03*
X0104791Y0111625D03*
X0104791Y0111778D03*
X0104791Y0111931D03*
X0104791Y0112084D03*
X0104791Y0112390D03*
X0104791Y0112543D03*
X0104791Y0112696D03*
X0104791Y0112849D03*
X0104791Y0113002D03*
X0104791Y0113155D03*
X0104791Y0113461D03*
X0104791Y0113614D03*
X0104791Y0113767D03*
X0104791Y0116980D03*
X0104791Y0117286D03*
X0104791Y0117439D03*
X0104791Y0117592D03*
X0104791Y0117745D03*
X0104791Y0117898D03*
X0098671Y0114379D03*
X0098671Y0114073D03*
X0098671Y0113920D03*
X0098671Y0113767D03*
X0098671Y0113614D03*
X0098671Y0113461D03*
X0098671Y0113155D03*
X0098671Y0113002D03*
X0098671Y0112849D03*
X0098671Y0112696D03*
X0098671Y0112543D03*
X0098671Y0112390D03*
X0098671Y0112084D03*
X0098671Y0111931D03*
X0098671Y0111778D03*
X0104791Y0108259D03*
X0104791Y0108106D03*
X0104791Y0107953D03*
X0104791Y0107800D03*
X0104791Y0107647D03*
X0104791Y0107341D03*
X0104791Y0107188D03*
X0104791Y0107035D03*
X0104791Y0106882D03*
X0104791Y0106729D03*
X0114889Y0113920D03*
X0114889Y0114073D03*
X0089950Y0114073D03*
X0089950Y0114379D03*
X0089950Y0114532D03*
X0083830Y0114532D03*
X0083830Y0114685D03*
X0083830Y0114838D03*
X0083830Y0114991D03*
X0083830Y0115297D03*
X0083830Y0115450D03*
X0083830Y0115603D03*
X0083830Y0115756D03*
X0083830Y0115909D03*
X0083830Y0116215D03*
X0083830Y0116368D03*
X0083830Y0116521D03*
X0083830Y0116674D03*
X0083830Y0116827D03*
X0083830Y0116980D03*
X0083830Y0117286D03*
X0083830Y0117439D03*
X0083830Y0117592D03*
X0083830Y0117745D03*
X0083830Y0117898D03*
X0083830Y0114379D03*
X0083830Y0114073D03*
X0083830Y0113920D03*
X0083830Y0113767D03*
X0083830Y0113614D03*
X0083830Y0113461D03*
X0083830Y0113155D03*
X0083830Y0113002D03*
X0083830Y0112849D03*
X0083830Y0112696D03*
X0083830Y0112543D03*
X0083830Y0112390D03*
X0083830Y0112084D03*
X0083830Y0111931D03*
X0083830Y0111778D03*
X0083830Y0111625D03*
X0083830Y0111472D03*
X0083830Y0111166D03*
X0083830Y0111013D03*
X0083830Y0110860D03*
X0083830Y0110707D03*
X0083830Y0110554D03*
X0083830Y0110248D03*
X0083830Y0110095D03*
X0083830Y0109942D03*
X0083830Y0109789D03*
X0083830Y0109636D03*
X0083830Y0109330D03*
X0083830Y0109177D03*
X0083830Y0109024D03*
X0083830Y0108871D03*
X0083830Y0108718D03*
X0083830Y0108565D03*
X0083830Y0108259D03*
X0083830Y0108106D03*
X0083830Y0107953D03*
X0083830Y0107800D03*
X0083830Y0107647D03*
X0083830Y0107341D03*
X0083830Y0107188D03*
X0083830Y0107035D03*
X0083830Y0106882D03*
X0083830Y0106729D03*
X0083830Y0103363D03*
X0083830Y0103210D03*
X0083830Y0103057D03*
X0083830Y0102904D03*
X0083830Y0102598D03*
X0083830Y0102445D03*
X0089338Y0105964D03*
X0089338Y0106117D03*
X0089338Y0106270D03*
X0089338Y0106423D03*
X0089338Y0107953D03*
X0089338Y0108106D03*
X0089338Y0108259D03*
X0074344Y0108259D03*
X0074344Y0108106D03*
X0074344Y0107953D03*
X0074344Y0107800D03*
X0074344Y0107647D03*
X0074344Y0107341D03*
X0074344Y0107188D03*
X0074344Y0107035D03*
X0074344Y0106882D03*
X0074344Y0106729D03*
X0074344Y0108565D03*
X0074344Y0108718D03*
X0074344Y0108871D03*
X0074344Y0109024D03*
X0074344Y0109177D03*
X0074344Y0109330D03*
X0074344Y0109636D03*
X0074344Y0109789D03*
X0074344Y0109942D03*
X0074344Y0110095D03*
X0074344Y0110248D03*
X0074344Y0110554D03*
X0074344Y0110707D03*
X0074344Y0110860D03*
X0074344Y0111013D03*
X0074344Y0111166D03*
X0074344Y0111472D03*
X0074344Y0111625D03*
X0074344Y0111778D03*
X0074344Y0111931D03*
X0074344Y0112084D03*
X0074344Y0112390D03*
X0074344Y0112543D03*
X0074344Y0112696D03*
X0074344Y0112849D03*
X0074344Y0113002D03*
X0074344Y0113155D03*
X0074344Y0113461D03*
X0074344Y0113614D03*
X0074344Y0113767D03*
X0074344Y0113920D03*
X0074344Y0114073D03*
X0074344Y0114379D03*
X0074344Y0114532D03*
X0074344Y0114685D03*
X0074344Y0114838D03*
X0074344Y0114991D03*
X0074344Y0115297D03*
X0074344Y0115450D03*
X0074344Y0115603D03*
X0074344Y0115756D03*
X0074344Y0115909D03*
X0074344Y0116215D03*
X0074344Y0116368D03*
X0074344Y0116521D03*
X0074344Y0116674D03*
X0074344Y0116827D03*
X0074344Y0116980D03*
X0074344Y0117286D03*
X0074344Y0117439D03*
X0074344Y0117592D03*
X0074344Y0117745D03*
X0074344Y0117898D03*
X0042826Y0123100D03*
X0033187Y0123100D03*
X0038083Y0108106D03*
X0038083Y0103057D03*
D55*
X0041984Y0103363D03*
X0047033Y0102445D03*
X0047186Y0102598D03*
X0047645Y0103210D03*
X0047798Y0103363D03*
X0048104Y0103975D03*
X0048104Y0104128D03*
X0048257Y0104434D03*
X0048410Y0105199D03*
X0048410Y0105352D03*
X0048410Y0105505D03*
X0048410Y0105811D03*
X0048410Y0105964D03*
X0048257Y0106729D03*
X0048104Y0107035D03*
X0048104Y0107188D03*
X0047798Y0107800D03*
X0047645Y0107953D03*
X0047186Y0108565D03*
X0047033Y0108718D03*
X0041984Y0107800D03*
X0034028Y0107800D03*
X0034028Y0103363D03*
X0028520Y0103057D03*
X0028367Y0103210D03*
X0028214Y0103516D03*
X0028061Y0103822D03*
X0027908Y0104128D03*
X0027755Y0104740D03*
X0027755Y0106423D03*
X0027908Y0107035D03*
X0028061Y0107341D03*
X0028214Y0107647D03*
X0028367Y0107953D03*
X0028520Y0108106D03*
D56*
X0038006Y0108565D03*
X0038006Y0102598D03*
X0033263Y0122641D03*
X0067994Y0106117D03*
X0077480Y0102445D03*
X0083447Y0106270D03*
X0118178Y0102445D03*
X0124145Y0106270D03*
X0150767Y0102445D03*
X0156734Y0106270D03*
X0198197Y0103822D03*
D57*
X0134626Y0102445D03*
X0094693Y0111013D03*
D58*
X0045044Y0107647D03*
X0045044Y0103516D03*
X0034334Y0103516D03*
X0032651Y0102598D03*
X0030968Y0103516D03*
X0030968Y0107647D03*
X0032651Y0108565D03*
X0034334Y0107647D03*
D59*
X0043438Y0108565D03*
X0043438Y0102598D03*
D60*
X0062639Y0102598D03*
D61*
X0077404Y0102598D03*
D62*
X0062639Y0103363D03*
X0062639Y0121417D03*
X0094310Y0114838D03*
X0094310Y0114685D03*
X0094310Y0110248D03*
X0094310Y0110095D03*
X0094310Y0103822D03*
X0120167Y0116827D03*
X0120167Y0116980D03*
X0135008Y0102598D03*
X0152756Y0103822D03*
X0167444Y0116827D03*
X0182897Y0116827D03*
X0182897Y0116674D03*
D63*
X0150767Y0102598D03*
X0033263Y0112696D03*
X0033263Y0121723D03*
D64*
X0028750Y0108412D03*
X0028138Y0107494D03*
X0027679Y0105658D03*
X0028138Y0103669D03*
X0028750Y0102751D03*
D65*
X0032575Y0102751D03*
X0032575Y0108412D03*
X0043438Y0108412D03*
X0043438Y0102751D03*
D66*
X0038006Y0102751D03*
X0038006Y0108412D03*
X0033263Y0122794D03*
X0192383Y0118051D03*
X0192842Y0117133D03*
X0193148Y0116062D03*
X0193913Y0114226D03*
X0194219Y0113308D03*
D67*
X0048410Y0105658D03*
X0048257Y0106576D03*
X0047951Y0107494D03*
X0047339Y0108412D03*
X0048257Y0104587D03*
X0047951Y0103669D03*
X0047339Y0102751D03*
X0027755Y0104587D03*
X0027755Y0106576D03*
D68*
X0062639Y0102751D03*
X0094310Y0117133D03*
D69*
X0089950Y0114226D03*
X0083830Y0114226D03*
X0083830Y0115144D03*
X0083830Y0116062D03*
X0083830Y0117133D03*
X0083830Y0118051D03*
X0083830Y0113308D03*
X0083830Y0112237D03*
X0083830Y0111319D03*
X0083830Y0110401D03*
X0083830Y0109483D03*
X0083830Y0108412D03*
X0083830Y0107494D03*
X0083830Y0102751D03*
X0089338Y0108412D03*
X0098671Y0108412D03*
X0098671Y0107494D03*
X0098671Y0106576D03*
X0098671Y0102751D03*
X0104791Y0102751D03*
X0104791Y0103669D03*
X0104791Y0104587D03*
X0104791Y0105658D03*
X0104791Y0106576D03*
X0104791Y0107494D03*
X0104791Y0108412D03*
X0104791Y0109483D03*
X0104791Y0110401D03*
X0104791Y0111319D03*
X0104791Y0112237D03*
X0104791Y0113308D03*
X0104791Y0117133D03*
X0104791Y0118051D03*
X0098671Y0114226D03*
X0098671Y0113308D03*
X0098671Y0112237D03*
X0114889Y0114226D03*
X0124528Y0113308D03*
X0124528Y0112237D03*
X0124528Y0111319D03*
X0124528Y0110401D03*
X0124528Y0109483D03*
X0124528Y0108412D03*
X0124528Y0107494D03*
X0124528Y0102751D03*
X0114889Y0106576D03*
X0124528Y0117133D03*
X0124528Y0118051D03*
X0124528Y0118969D03*
X0124528Y0119887D03*
X0124528Y0120958D03*
X0124528Y0121876D03*
X0124528Y0122794D03*
X0147784Y0118051D03*
X0147784Y0117133D03*
X0147784Y0116062D03*
X0147784Y0115144D03*
X0147784Y0114226D03*
X0147784Y0113308D03*
X0147784Y0112237D03*
X0147784Y0111319D03*
X0147784Y0110401D03*
X0147784Y0109483D03*
X0147784Y0108412D03*
X0147784Y0107494D03*
X0147784Y0106576D03*
X0157117Y0106576D03*
X0157117Y0107494D03*
X0157117Y0108412D03*
X0157117Y0109483D03*
X0157117Y0110401D03*
X0157117Y0111319D03*
X0157117Y0112237D03*
X0157117Y0113308D03*
X0157117Y0114226D03*
X0157117Y0115144D03*
X0157117Y0116062D03*
X0157117Y0117133D03*
X0157117Y0118051D03*
X0163084Y0118051D03*
X0163084Y0113308D03*
X0163084Y0112237D03*
X0163084Y0111319D03*
X0163084Y0110401D03*
X0163084Y0109483D03*
X0163084Y0108412D03*
X0163084Y0107494D03*
X0163084Y0106576D03*
X0163084Y0105658D03*
X0163084Y0104587D03*
X0163084Y0103669D03*
X0163084Y0102751D03*
X0157117Y0102751D03*
X0172570Y0102751D03*
X0172570Y0103669D03*
X0172570Y0104587D03*
X0172570Y0105658D03*
X0172570Y0106576D03*
X0172570Y0107494D03*
X0172570Y0108412D03*
X0172570Y0109483D03*
X0172570Y0110401D03*
X0172570Y0111319D03*
X0172570Y0112237D03*
X0172570Y0113308D03*
X0178537Y0113308D03*
X0178537Y0112237D03*
X0178537Y0111319D03*
X0178537Y0110401D03*
X0178537Y0109483D03*
X0178537Y0108412D03*
X0178537Y0107494D03*
X0178537Y0106576D03*
X0178537Y0105658D03*
X0178537Y0104587D03*
X0178537Y0103669D03*
X0178537Y0102751D03*
X0187870Y0102751D03*
X0187870Y0103669D03*
X0187870Y0104587D03*
X0187870Y0105658D03*
X0187870Y0106576D03*
X0187870Y0107494D03*
X0187870Y0108412D03*
X0187870Y0109483D03*
X0187870Y0110401D03*
X0187870Y0111319D03*
X0187870Y0112237D03*
X0187870Y0113308D03*
X0178537Y0117133D03*
X0178537Y0118051D03*
X0200569Y0109483D03*
X0201793Y0113308D03*
X0198121Y0102751D03*
X0074344Y0107494D03*
X0074344Y0108412D03*
X0074344Y0109483D03*
X0074344Y0110401D03*
X0074344Y0111319D03*
X0074344Y0112237D03*
X0074344Y0113308D03*
X0074344Y0114226D03*
X0074344Y0115144D03*
X0074344Y0116062D03*
X0074344Y0117133D03*
X0074344Y0118051D03*
D70*
X0092321Y0102751D03*
D71*
X0118102Y0102751D03*
D72*
X0135238Y0102751D03*
X0152527Y0104587D03*
X0167674Y0116062D03*
X0119938Y0116062D03*
X0079240Y0104587D03*
X0062716Y0103669D03*
D73*
X0038006Y0103975D03*
X0038006Y0107035D03*
X0038006Y0107188D03*
X0032651Y0108259D03*
X0032651Y0102904D03*
D74*
X0038006Y0102904D03*
X0038006Y0108259D03*
X0056825Y0108259D03*
X0056825Y0108106D03*
X0056825Y0107953D03*
X0056825Y0108565D03*
X0056825Y0108718D03*
X0056978Y0107035D03*
X0056978Y0106882D03*
X0056825Y0116215D03*
X0056825Y0116368D03*
X0056825Y0116521D03*
X0056825Y0116674D03*
X0056825Y0116827D03*
X0056978Y0117898D03*
X0068300Y0117898D03*
X0068300Y0117745D03*
X0068300Y0117592D03*
X0068453Y0117439D03*
X0068453Y0117286D03*
X0068453Y0116980D03*
X0068453Y0116827D03*
X0068453Y0116674D03*
X0068453Y0116521D03*
X0068453Y0116368D03*
X0068453Y0116215D03*
X0068453Y0115909D03*
X0068453Y0115756D03*
X0068453Y0115603D03*
X0068453Y0115450D03*
X0068300Y0118204D03*
X0068453Y0108106D03*
X0068453Y0107953D03*
X0068453Y0107800D03*
X0068453Y0107647D03*
X0068453Y0107341D03*
X0068300Y0106729D03*
X0089567Y0108565D03*
X0098594Y0106423D03*
X0098594Y0114532D03*
X0114965Y0114379D03*
X0114965Y0106117D03*
X0141893Y0106270D03*
X0142046Y0107188D03*
X0142046Y0107341D03*
X0142046Y0107647D03*
X0142046Y0107800D03*
X0142046Y0107953D03*
X0142046Y0108106D03*
X0142046Y0108259D03*
X0142046Y0108565D03*
X0142046Y0108718D03*
X0142046Y0108871D03*
X0142046Y0109024D03*
X0142046Y0109177D03*
X0142046Y0109330D03*
X0142046Y0109636D03*
X0142046Y0109789D03*
X0141893Y0110095D03*
X0141893Y0110248D03*
X0141893Y0110554D03*
X0141740Y0110860D03*
X0141740Y0114991D03*
X0141740Y0115297D03*
X0141740Y0115450D03*
X0141740Y0115603D03*
X0141893Y0116215D03*
X0141893Y0116368D03*
X0141893Y0116521D03*
X0141893Y0116674D03*
X0141893Y0116827D03*
X0141893Y0116980D03*
X0141893Y0117286D03*
X0141893Y0117439D03*
X0141740Y0118510D03*
X0147860Y0106270D03*
X0163160Y0113920D03*
X0172493Y0114073D03*
X0195290Y0110554D03*
X0195443Y0110095D03*
X0195596Y0109789D03*
X0195596Y0109636D03*
X0195749Y0109330D03*
X0195749Y0109177D03*
X0200951Y0110860D03*
X0201257Y0111625D03*
X0201257Y0111778D03*
X0201410Y0112084D03*
X0201869Y0113461D03*
X0201869Y0113614D03*
X0201869Y0113767D03*
X0202022Y0113920D03*
X0202022Y0114073D03*
X0202175Y0114379D03*
X0202175Y0114532D03*
X0202328Y0114838D03*
X0202328Y0114991D03*
X0202481Y0115297D03*
X0202481Y0115450D03*
X0202940Y0116674D03*
X0203246Y0117592D03*
X0198197Y0103057D03*
D75*
X0043438Y0102904D03*
X0043438Y0108259D03*
D76*
X0062639Y0102904D03*
X0094310Y0116674D03*
D77*
X0079087Y0105964D03*
X0119785Y0105505D03*
X0119785Y0105352D03*
X0119785Y0105199D03*
X0119785Y0105046D03*
X0119785Y0114991D03*
X0119785Y0115297D03*
X0119785Y0115450D03*
X0135391Y0102904D03*
X0167827Y0114685D03*
D78*
X0094769Y0111166D03*
X0094310Y0116368D03*
X0094310Y0116521D03*
X0062639Y0103057D03*
D79*
X0077404Y0103057D03*
X0042826Y0115603D03*
X0042826Y0115756D03*
X0042826Y0115909D03*
X0042826Y0116215D03*
X0042826Y0116368D03*
X0042826Y0116521D03*
X0042826Y0116674D03*
X0042826Y0116827D03*
X0042826Y0116980D03*
X0042826Y0117286D03*
X0042826Y0117439D03*
X0042826Y0117592D03*
X0042826Y0117745D03*
X0042826Y0117898D03*
X0042826Y0118204D03*
X0042826Y0118357D03*
X0042826Y0118510D03*
X0042826Y0118663D03*
X0042826Y0118816D03*
X0033187Y0118663D03*
X0033187Y0118510D03*
X0033187Y0118357D03*
X0033187Y0118204D03*
X0033187Y0117898D03*
X0033187Y0117745D03*
X0033187Y0116674D03*
X0033187Y0116521D03*
X0033187Y0116368D03*
X0033187Y0116215D03*
X0033187Y0115909D03*
X0033187Y0115756D03*
X0198121Y0107341D03*
D80*
X0089873Y0112696D03*
X0089873Y0112849D03*
X0089873Y0113002D03*
X0089873Y0113155D03*
X0089873Y0113461D03*
X0089873Y0113614D03*
X0089873Y0113767D03*
X0089873Y0113920D03*
X0089261Y0107800D03*
X0089261Y0107647D03*
X0089261Y0107341D03*
X0089261Y0107188D03*
X0089261Y0107035D03*
X0089261Y0106882D03*
X0089261Y0106729D03*
X0038006Y0107953D03*
X0038006Y0103210D03*
X0032651Y0103210D03*
X0032651Y0107953D03*
X0033263Y0123253D03*
D81*
X0042826Y0123253D03*
X0043438Y0107953D03*
X0043438Y0103210D03*
X0109993Y0117898D03*
D82*
X0094540Y0110707D03*
X0062716Y0103210D03*
D83*
X0077480Y0103210D03*
X0118178Y0103210D03*
X0150767Y0103210D03*
X0169433Y0117286D03*
X0198044Y0108106D03*
X0198044Y0107953D03*
D84*
X0184810Y0117286D03*
X0118102Y0117286D03*
X0092398Y0103210D03*
D85*
X0135620Y0103210D03*
X0135620Y0112696D03*
X0135620Y0121570D03*
X0038006Y0111472D03*
D86*
X0056749Y0111472D03*
X0056749Y0111625D03*
X0056749Y0111778D03*
X0056749Y0111931D03*
X0056749Y0112084D03*
X0056749Y0112390D03*
X0056749Y0112543D03*
X0056749Y0112696D03*
X0056749Y0112849D03*
X0056749Y0113002D03*
X0056749Y0113155D03*
X0056749Y0113461D03*
X0056749Y0113614D03*
X0056749Y0113767D03*
X0056749Y0113920D03*
X0056749Y0114073D03*
X0056749Y0114379D03*
X0056749Y0114532D03*
X0056749Y0114685D03*
X0056749Y0114838D03*
X0056749Y0114991D03*
X0056749Y0115297D03*
X0056749Y0115450D03*
X0056749Y0115603D03*
X0056749Y0115756D03*
X0056749Y0115909D03*
X0056902Y0116980D03*
X0056902Y0117286D03*
X0056902Y0117439D03*
X0056902Y0117592D03*
X0056902Y0117745D03*
X0057055Y0118204D03*
X0057055Y0118357D03*
X0057055Y0118510D03*
X0056749Y0111166D03*
X0056749Y0111013D03*
X0056749Y0110860D03*
X0056749Y0110707D03*
X0056749Y0110554D03*
X0056749Y0110248D03*
X0056749Y0110095D03*
X0056749Y0109942D03*
X0056749Y0109789D03*
X0056749Y0109636D03*
X0056749Y0109330D03*
X0056749Y0109177D03*
X0056749Y0109024D03*
X0056749Y0108871D03*
X0056902Y0107800D03*
X0056902Y0107647D03*
X0056902Y0107341D03*
X0056902Y0107188D03*
X0057055Y0106729D03*
X0057055Y0106423D03*
X0068224Y0106423D03*
X0068377Y0106882D03*
X0068377Y0107035D03*
X0068377Y0107188D03*
X0068530Y0108259D03*
X0068530Y0108565D03*
X0068530Y0108718D03*
X0068530Y0108871D03*
X0068530Y0109024D03*
X0068530Y0109177D03*
X0068530Y0109330D03*
X0068530Y0109636D03*
X0068224Y0118357D03*
X0068224Y0118510D03*
X0141817Y0118357D03*
X0141817Y0118204D03*
X0141817Y0117898D03*
X0141817Y0117745D03*
X0141817Y0117592D03*
X0141817Y0115909D03*
X0141817Y0115756D03*
X0141817Y0110707D03*
X0141970Y0109942D03*
X0141970Y0107035D03*
X0141970Y0106882D03*
X0141970Y0106729D03*
X0141970Y0106423D03*
X0172417Y0114379D03*
X0187717Y0114379D03*
X0193378Y0115603D03*
X0193684Y0114685D03*
X0194296Y0113155D03*
X0194296Y0113002D03*
X0194449Y0112849D03*
X0194449Y0112696D03*
X0194449Y0112543D03*
X0194602Y0112390D03*
X0194755Y0112084D03*
X0194755Y0111931D03*
X0194755Y0111778D03*
X0195367Y0110248D03*
X0195520Y0109942D03*
X0202252Y0114685D03*
X0203017Y0116827D03*
X0203017Y0116980D03*
X0203170Y0117286D03*
X0203170Y0117439D03*
X0203323Y0117745D03*
X0203323Y0117898D03*
X0198121Y0103363D03*
X0198121Y0103210D03*
D87*
X0044815Y0103363D03*
X0041755Y0103516D03*
X0041755Y0107647D03*
X0044815Y0107800D03*
X0031198Y0107800D03*
X0031198Y0103363D03*
D88*
X0038006Y0103363D03*
X0038006Y0107800D03*
X0033263Y0123406D03*
D89*
X0092398Y0103363D03*
X0150844Y0103363D03*
D90*
X0118178Y0103363D03*
D91*
X0135697Y0103363D03*
X0135697Y0112543D03*
X0135697Y0113155D03*
X0135697Y0121417D03*
X0038083Y0111625D03*
D92*
X0038006Y0111013D03*
X0038006Y0110860D03*
X0062639Y0103516D03*
X0079316Y0104128D03*
X0079316Y0104281D03*
X0094157Y0104281D03*
X0094157Y0104434D03*
X0094157Y0109330D03*
X0094157Y0109636D03*
X0120014Y0104128D03*
X0120014Y0103975D03*
X0120014Y0116368D03*
X0120014Y0116521D03*
X0135161Y0122182D03*
X0152603Y0104434D03*
X0152603Y0104281D03*
X0167597Y0116215D03*
X0167597Y0116368D03*
X0183050Y0116215D03*
X0183050Y0115909D03*
X0062639Y0121264D03*
D93*
X0079546Y0103516D03*
X0094387Y0103516D03*
X0094234Y0114991D03*
X0120244Y0103516D03*
X0134932Y0122335D03*
X0152833Y0103516D03*
X0167368Y0116980D03*
X0182821Y0116980D03*
D94*
X0135773Y0121264D03*
X0135773Y0112390D03*
X0135773Y0103516D03*
X0062639Y0104434D03*
X0038006Y0111778D03*
X0062639Y0120499D03*
D95*
X0068147Y0118663D03*
X0068147Y0106270D03*
X0083600Y0106423D03*
X0192536Y0117745D03*
X0192536Y0117898D03*
X0192689Y0117439D03*
X0192689Y0117286D03*
X0193454Y0115450D03*
X0193454Y0115297D03*
X0193607Y0114991D03*
X0193607Y0114838D03*
X0198197Y0103516D03*
D96*
X0045274Y0103669D03*
X0041602Y0103669D03*
X0041602Y0107494D03*
X0045274Y0107494D03*
X0030739Y0107494D03*
X0030739Y0103669D03*
D97*
X0034487Y0103669D03*
X0034487Y0107494D03*
D98*
X0038006Y0107494D03*
X0038006Y0103669D03*
D99*
X0079469Y0103669D03*
X0094310Y0103669D03*
X0120167Y0103669D03*
D100*
X0135850Y0103669D03*
X0135850Y0112237D03*
D101*
X0152833Y0103669D03*
X0094387Y0110401D03*
D102*
X0124222Y0114226D03*
X0178843Y0114226D03*
X0198121Y0103669D03*
X0042826Y0122794D03*
D103*
X0041449Y0107341D03*
X0041296Y0107188D03*
X0045427Y0107341D03*
X0045580Y0107188D03*
X0045580Y0103975D03*
X0045427Y0103822D03*
X0041449Y0103822D03*
X0041296Y0103975D03*
X0034870Y0104128D03*
X0034717Y0103822D03*
X0030586Y0103822D03*
X0030586Y0107341D03*
X0034870Y0107035D03*
D104*
X0038083Y0107341D03*
X0038083Y0103822D03*
X0042826Y0123559D03*
X0033187Y0123559D03*
D105*
X0038006Y0111166D03*
X0062639Y0103822D03*
X0079163Y0104893D03*
X0079163Y0105046D03*
X0079163Y0105199D03*
X0079163Y0105352D03*
X0079163Y0105505D03*
X0079163Y0105811D03*
X0094004Y0105811D03*
X0094004Y0105505D03*
X0094004Y0105352D03*
X0119861Y0104893D03*
X0119861Y0104740D03*
X0119861Y0115603D03*
X0119861Y0115756D03*
X0119861Y0115909D03*
X0135314Y0122029D03*
X0152450Y0105964D03*
X0152450Y0105811D03*
X0152450Y0105505D03*
X0152450Y0105352D03*
X0167750Y0114838D03*
X0167750Y0114991D03*
X0167750Y0115297D03*
X0167750Y0115450D03*
X0167750Y0115603D03*
X0183203Y0114991D03*
X0183203Y0114838D03*
X0183203Y0114685D03*
X0062639Y0121111D03*
D106*
X0079393Y0103975D03*
X0079393Y0103822D03*
X0094234Y0103975D03*
X0094234Y0104128D03*
X0094234Y0109789D03*
X0094234Y0109942D03*
X0120091Y0103822D03*
X0120091Y0116674D03*
X0152680Y0104128D03*
X0152680Y0103975D03*
X0167521Y0116521D03*
X0167521Y0116674D03*
X0182974Y0116521D03*
X0182974Y0116368D03*
D107*
X0046115Y0105811D03*
X0046115Y0105505D03*
X0046115Y0105352D03*
X0045962Y0104740D03*
X0045809Y0104434D03*
X0045809Y0104281D03*
X0045656Y0104128D03*
X0045962Y0106423D03*
X0045809Y0106729D03*
X0045809Y0106882D03*
X0045656Y0107035D03*
X0041219Y0107035D03*
X0041066Y0106882D03*
X0040913Y0106423D03*
X0040760Y0106117D03*
X0040760Y0105964D03*
X0040760Y0105811D03*
X0040760Y0105505D03*
X0040760Y0105352D03*
X0040760Y0105199D03*
X0040760Y0105046D03*
X0040913Y0104740D03*
X0041066Y0104281D03*
X0041219Y0104128D03*
X0035252Y0104893D03*
X0035252Y0105046D03*
X0035099Y0104434D03*
X0034946Y0104281D03*
X0035252Y0106117D03*
X0035252Y0106270D03*
X0035099Y0106729D03*
X0034946Y0106882D03*
X0034640Y0107341D03*
X0030509Y0107188D03*
X0030356Y0107035D03*
X0030356Y0106882D03*
X0030203Y0106729D03*
X0030203Y0104434D03*
X0030356Y0104281D03*
X0030356Y0104128D03*
X0030509Y0103975D03*
X0033263Y0124171D03*
D108*
X0034793Y0107188D03*
X0034793Y0103975D03*
X0030050Y0104740D03*
X0030050Y0104893D03*
X0030050Y0106270D03*
X0030050Y0106423D03*
D109*
X0062639Y0103975D03*
X0119708Y0105811D03*
X0119708Y0105964D03*
X0119708Y0114685D03*
X0119708Y0114838D03*
X0135467Y0112849D03*
D110*
X0136003Y0111931D03*
X0136003Y0113920D03*
X0136003Y0120499D03*
X0136003Y0120652D03*
X0136003Y0104128D03*
X0136003Y0103975D03*
D111*
X0115348Y0114532D03*
X0109381Y0116980D03*
X0098212Y0106117D03*
X0042826Y0122488D03*
X0033187Y0122488D03*
X0187411Y0114532D03*
X0198121Y0104128D03*
X0198121Y0103975D03*
D112*
X0184810Y0118204D03*
X0169357Y0118204D03*
X0038083Y0104128D03*
D113*
X0062639Y0104128D03*
X0062639Y0104281D03*
X0062639Y0120652D03*
D114*
X0062639Y0119734D03*
X0062639Y0105352D03*
X0062639Y0105199D03*
X0062639Y0105046D03*
X0136079Y0104434D03*
X0136079Y0104281D03*
X0136079Y0111625D03*
X0136079Y0111778D03*
X0136079Y0114073D03*
X0136079Y0114379D03*
X0136079Y0120193D03*
X0136079Y0120346D03*
D115*
X0046039Y0106270D03*
X0046039Y0106117D03*
X0046039Y0105964D03*
X0046039Y0105199D03*
X0046039Y0105046D03*
X0046039Y0104893D03*
X0040990Y0104434D03*
X0040837Y0104893D03*
X0040837Y0106270D03*
X0040990Y0106729D03*
X0035329Y0105964D03*
X0035329Y0105811D03*
X0035329Y0105505D03*
X0035329Y0105352D03*
X0035329Y0105199D03*
X0035176Y0104740D03*
X0035176Y0106423D03*
X0042826Y0124171D03*
D116*
X0042826Y0122182D03*
X0033187Y0122182D03*
X0042826Y0112084D03*
X0083218Y0106117D03*
X0156505Y0106117D03*
X0163696Y0114379D03*
X0198121Y0104434D03*
D117*
X0030127Y0104587D03*
X0029974Y0105658D03*
X0030127Y0106576D03*
D118*
X0035099Y0106576D03*
X0035099Y0104587D03*
X0040760Y0105658D03*
X0040913Y0106576D03*
X0040913Y0104587D03*
X0045962Y0104587D03*
X0046115Y0105658D03*
X0045962Y0106576D03*
D119*
X0038006Y0106576D03*
X0038006Y0104587D03*
D120*
X0062639Y0104587D03*
X0135773Y0113308D03*
D121*
X0094157Y0109483D03*
X0094157Y0104587D03*
X0183050Y0116062D03*
D122*
X0183203Y0115144D03*
X0167750Y0115144D03*
X0152450Y0105658D03*
X0119861Y0104587D03*
X0094004Y0105658D03*
X0079163Y0105658D03*
D123*
X0038083Y0110401D03*
X0136156Y0111319D03*
X0136156Y0104587D03*
X0136156Y0119887D03*
D124*
X0198121Y0104587D03*
X0042826Y0112237D03*
X0033187Y0112237D03*
D125*
X0062716Y0105505D03*
X0062716Y0119428D03*
X0062716Y0119581D03*
X0136156Y0119581D03*
X0136156Y0119734D03*
X0136156Y0120040D03*
X0136156Y0114532D03*
X0136156Y0111472D03*
X0136156Y0104740D03*
D126*
X0042902Y0123865D03*
X0033263Y0123865D03*
X0038006Y0106270D03*
X0038006Y0106117D03*
X0038006Y0105964D03*
X0038006Y0105811D03*
X0038006Y0105505D03*
X0038006Y0105352D03*
X0038006Y0105199D03*
X0038006Y0105046D03*
X0038006Y0104893D03*
D127*
X0062639Y0105811D03*
X0062639Y0105964D03*
X0062639Y0119122D03*
X0062639Y0119275D03*
X0136232Y0119275D03*
X0136232Y0119428D03*
X0136232Y0119122D03*
X0136232Y0118816D03*
X0136232Y0111166D03*
X0136232Y0111013D03*
X0136232Y0105352D03*
X0136232Y0105199D03*
X0136232Y0105046D03*
X0136232Y0104893D03*
D128*
X0029974Y0105046D03*
X0029974Y0105199D03*
X0029974Y0105352D03*
X0029974Y0105505D03*
X0029974Y0105811D03*
X0029974Y0105964D03*
X0029974Y0106117D03*
D129*
X0062716Y0118816D03*
X0136309Y0105964D03*
X0136309Y0105811D03*
X0136309Y0105505D03*
D130*
X0035329Y0105658D03*
D131*
X0038006Y0105658D03*
D132*
X0038006Y0111319D03*
X0062639Y0120958D03*
X0119708Y0105658D03*
X0135467Y0121876D03*
D133*
X0136309Y0105658D03*
D134*
X0198121Y0105658D03*
X0033187Y0113308D03*
D135*
X0042826Y0122641D03*
X0057361Y0106117D03*
X0098365Y0106270D03*
X0109534Y0117286D03*
D136*
X0124375Y0114073D03*
X0130801Y0114685D03*
X0130801Y0114838D03*
X0130801Y0114991D03*
X0130801Y0115297D03*
X0130801Y0115450D03*
X0130801Y0115603D03*
X0130801Y0115756D03*
X0130801Y0115909D03*
X0130801Y0116215D03*
X0130801Y0116368D03*
X0130801Y0116521D03*
X0130801Y0116674D03*
X0130801Y0116827D03*
X0130801Y0116980D03*
X0130801Y0117286D03*
X0130801Y0117439D03*
X0130801Y0117592D03*
X0130801Y0117745D03*
X0130801Y0117898D03*
X0130801Y0118204D03*
X0130801Y0118357D03*
X0130801Y0118510D03*
X0130801Y0118663D03*
X0141664Y0118663D03*
X0141664Y0114838D03*
X0141511Y0114685D03*
X0130801Y0110860D03*
X0130801Y0110707D03*
X0130801Y0110554D03*
X0130801Y0110248D03*
X0130801Y0110095D03*
X0130801Y0109942D03*
X0130801Y0109789D03*
X0130801Y0109636D03*
X0130801Y0109330D03*
X0130801Y0109177D03*
X0130801Y0109024D03*
X0130801Y0108871D03*
X0130801Y0108718D03*
X0130801Y0108565D03*
X0130801Y0108259D03*
X0130801Y0108106D03*
X0130801Y0107953D03*
X0130801Y0107800D03*
X0130801Y0107647D03*
X0130801Y0107341D03*
X0130801Y0107188D03*
X0130801Y0107035D03*
X0130801Y0106882D03*
X0130801Y0106729D03*
X0130801Y0106423D03*
X0130801Y0106270D03*
X0130801Y0106117D03*
X0147937Y0106117D03*
X0156964Y0106423D03*
X0163237Y0114073D03*
X0178690Y0114073D03*
X0193072Y0116368D03*
X0193837Y0114379D03*
X0193990Y0113920D03*
X0194143Y0113614D03*
X0194143Y0113461D03*
X0194908Y0111625D03*
X0194908Y0111472D03*
X0195061Y0111166D03*
X0195061Y0111013D03*
X0195214Y0110707D03*
X0195826Y0109024D03*
X0195979Y0108718D03*
X0202558Y0115603D03*
X0202864Y0116521D03*
X0074497Y0106117D03*
X0042826Y0122947D03*
X0033187Y0122947D03*
D137*
X0057131Y0118663D03*
X0057131Y0106270D03*
X0105020Y0113920D03*
X0109610Y0117439D03*
X0124298Y0106423D03*
X0141740Y0106117D03*
X0192842Y0116827D03*
X0192842Y0116980D03*
X0192995Y0116674D03*
X0192995Y0116521D03*
X0193148Y0116215D03*
X0193301Y0115909D03*
X0193301Y0115756D03*
X0193760Y0114532D03*
X0193913Y0114073D03*
X0194066Y0113767D03*
D138*
X0193531Y0115144D03*
X0194602Y0112237D03*
X0195367Y0110401D03*
X0195673Y0109483D03*
X0202099Y0114226D03*
X0202405Y0115144D03*
X0203323Y0118051D03*
X0141817Y0118051D03*
X0141817Y0116062D03*
X0141970Y0106576D03*
X0068530Y0108412D03*
X0068530Y0109483D03*
X0068224Y0106576D03*
X0057055Y0106576D03*
X0056902Y0107494D03*
X0056749Y0109483D03*
X0056749Y0110401D03*
X0056749Y0111319D03*
X0056749Y0112237D03*
X0056749Y0113308D03*
X0056749Y0114226D03*
X0056749Y0115144D03*
X0056749Y0116062D03*
X0056902Y0117133D03*
D139*
X0074420Y0106576D03*
X0194984Y0111319D03*
X0200798Y0110401D03*
D140*
X0201104Y0111319D03*
X0201410Y0112237D03*
X0203093Y0117133D03*
X0187793Y0114226D03*
X0172493Y0114226D03*
X0141893Y0117133D03*
X0141740Y0115144D03*
X0141893Y0110401D03*
X0142046Y0109483D03*
X0142046Y0108412D03*
X0142046Y0107494D03*
X0124451Y0106576D03*
X0083753Y0106576D03*
X0068453Y0107494D03*
X0068453Y0116062D03*
X0068453Y0117133D03*
X0068300Y0118051D03*
X0056978Y0118051D03*
X0056825Y0108412D03*
D141*
X0089261Y0107494D03*
X0089261Y0106576D03*
X0089873Y0113308D03*
D142*
X0130801Y0115144D03*
X0130801Y0116062D03*
X0130801Y0117133D03*
X0130801Y0118051D03*
X0130801Y0110401D03*
X0130801Y0109483D03*
X0130801Y0108412D03*
X0130801Y0107494D03*
X0130801Y0106576D03*
X0202711Y0116062D03*
D143*
X0114736Y0113308D03*
X0114736Y0112237D03*
X0114736Y0111319D03*
X0114736Y0110401D03*
X0114736Y0109483D03*
X0114736Y0108412D03*
X0114736Y0107494D03*
D144*
X0038006Y0109483D03*
X0033263Y0117133D03*
X0198044Y0107494D03*
D145*
X0198121Y0107800D03*
D146*
X0198044Y0108412D03*
D147*
X0046039Y0109483D03*
X0029974Y0109483D03*
D148*
X0066311Y0109789D03*
X0066311Y0109942D03*
X0066311Y0110095D03*
X0066311Y0110248D03*
X0066311Y0110554D03*
X0066311Y0110707D03*
X0066311Y0110860D03*
X0066311Y0111013D03*
X0066311Y0111166D03*
X0066311Y0111472D03*
X0066311Y0111625D03*
X0066311Y0111778D03*
X0066311Y0111931D03*
X0066311Y0112084D03*
X0066311Y0112390D03*
X0066311Y0112543D03*
X0066311Y0112696D03*
X0066311Y0112849D03*
X0066311Y0113002D03*
X0066311Y0113155D03*
X0066311Y0113461D03*
D149*
X0038083Y0109942D03*
D150*
X0038006Y0110248D03*
D151*
X0066311Y0110401D03*
X0066311Y0111319D03*
X0066311Y0112237D03*
X0066311Y0113308D03*
D152*
X0062716Y0120346D03*
X0038083Y0110554D03*
X0135850Y0113461D03*
X0135850Y0121111D03*
D153*
X0094310Y0116215D03*
X0094310Y0115909D03*
X0094616Y0110860D03*
D154*
X0094922Y0111319D03*
D155*
X0095075Y0111472D03*
X0094310Y0116980D03*
X0062639Y0122029D03*
D156*
X0095305Y0111625D03*
D157*
X0042902Y0113002D03*
D158*
X0042826Y0113155D03*
X0042826Y0121111D03*
X0042826Y0121264D03*
D159*
X0042826Y0113308D03*
D160*
X0107315Y0114226D03*
X0107315Y0115144D03*
X0107315Y0116062D03*
D161*
X0136079Y0114226D03*
D162*
X0109457Y0117133D03*
X0163466Y0114226D03*
D163*
X0107315Y0114379D03*
X0107315Y0114532D03*
X0107315Y0114685D03*
X0107315Y0114838D03*
X0107315Y0114991D03*
X0107315Y0115297D03*
X0107315Y0115450D03*
X0107315Y0115603D03*
X0107315Y0115756D03*
X0107315Y0115909D03*
X0107315Y0116215D03*
X0107315Y0116368D03*
X0107315Y0116521D03*
X0107315Y0116674D03*
X0107315Y0116827D03*
D164*
X0042826Y0115144D03*
X0033187Y0115144D03*
D165*
X0094310Y0115144D03*
X0167291Y0117133D03*
D166*
X0119785Y0115144D03*
D167*
X0042826Y0116062D03*
X0042826Y0117133D03*
X0042826Y0118051D03*
X0033187Y0118051D03*
X0033187Y0116062D03*
D168*
X0094310Y0116062D03*
D169*
X0094387Y0116827D03*
D170*
X0118178Y0117133D03*
D171*
X0184810Y0117133D03*
D172*
X0094310Y0117286D03*
X0062639Y0122182D03*
D173*
X0094310Y0117439D03*
D174*
X0192613Y0117592D03*
D175*
X0094310Y0117745D03*
D176*
X0094234Y0118051D03*
D177*
X0110146Y0118051D03*
D178*
X0118178Y0118051D03*
X0169433Y0118051D03*
X0184886Y0118051D03*
D179*
X0042902Y0119887D03*
X0033263Y0119887D03*
D180*
X0062716Y0119887D03*
D181*
X0062716Y0120805D03*
D182*
X0042902Y0120958D03*
X0033263Y0120958D03*
D183*
X0135926Y0120958D03*
D184*
X0062639Y0121723D03*
D185*
X0042826Y0121876D03*
X0033187Y0121876D03*
D186*
X0062639Y0121876D03*
D187*
X0062716Y0122335D03*
D188*
X0062639Y0122488D03*
D189*
X0042826Y0123712D03*
X0033187Y0123712D03*
D190*
X0118529Y0028271D02*
X0118529Y0027504D01*
X0118529Y0025969D02*
X0118529Y0022900D01*
X0117762Y0022900D02*
X0119296Y0022900D01*
X0121598Y0023667D02*
X0122366Y0022900D01*
X0121598Y0023667D02*
X0121598Y0026737D01*
X0120831Y0025969D02*
X0122366Y0025969D01*
X0123900Y0025202D02*
X0124668Y0025969D01*
X0126202Y0025969D01*
X0126970Y0025202D01*
X0126970Y0022900D01*
X0128504Y0023667D02*
X0129272Y0022900D01*
X0131574Y0022900D01*
X0131574Y0025969D01*
X0133108Y0025969D02*
X0135410Y0025969D01*
X0136178Y0025202D01*
X0136178Y0023667D01*
X0135410Y0022900D01*
X0133108Y0022900D01*
X0133108Y0027504D01*
X0137712Y0023667D02*
X0138480Y0023667D01*
X0138480Y0022900D01*
X0137712Y0022900D01*
X0137712Y0023667D01*
X0140014Y0023667D02*
X0140781Y0022900D01*
X0143083Y0022900D01*
X0144618Y0023667D02*
X0145385Y0022900D01*
X0146920Y0022900D01*
X0147687Y0023667D01*
X0147687Y0025202D01*
X0146920Y0025969D01*
X0145385Y0025969D01*
X0144618Y0025202D01*
X0144618Y0023667D01*
X0143083Y0025969D02*
X0140781Y0025969D01*
X0140014Y0025202D01*
X0140014Y0023667D01*
X0149222Y0022900D02*
X0149222Y0025969D01*
X0149989Y0025969D01*
X0150757Y0025202D01*
X0151524Y0025969D01*
X0152291Y0025202D01*
X0152291Y0022900D01*
X0150757Y0022900D02*
X0150757Y0025202D01*
X0153826Y0022900D02*
X0156895Y0027504D01*
X0158430Y0027504D02*
X0158430Y0022900D01*
X0158430Y0024435D02*
X0160732Y0025969D01*
X0162266Y0025969D02*
X0162266Y0022900D01*
X0160732Y0022900D02*
X0158430Y0024435D01*
X0162266Y0024435D02*
X0163801Y0025969D01*
X0164568Y0025969D01*
X0166103Y0025969D02*
X0166870Y0025969D01*
X0166870Y0022900D01*
X0166103Y0022900D02*
X0167638Y0022900D01*
X0169172Y0022900D02*
X0171474Y0022900D01*
X0172242Y0023667D01*
X0171474Y0024435D01*
X0169940Y0024435D01*
X0169172Y0025202D01*
X0169940Y0025969D01*
X0172242Y0025969D01*
X0173776Y0025969D02*
X0175311Y0025969D01*
X0174544Y0026737D02*
X0174544Y0023667D01*
X0175311Y0022900D01*
X0176846Y0022900D02*
X0178380Y0022900D01*
X0177613Y0022900D02*
X0177613Y0025969D01*
X0176846Y0025969D01*
X0177613Y0027504D02*
X0177613Y0028271D01*
X0179915Y0025969D02*
X0182217Y0025969D01*
X0182984Y0025202D01*
X0182984Y0022900D01*
X0184519Y0022900D02*
X0186821Y0022900D01*
X0187588Y0023667D01*
X0187588Y0025202D01*
X0186821Y0025969D01*
X0184519Y0025969D01*
X0184519Y0021365D01*
X0179915Y0022900D02*
X0179915Y0025969D01*
X0189123Y0023667D02*
X0189890Y0024435D01*
X0192192Y0024435D01*
X0192192Y0025202D02*
X0192192Y0022900D01*
X0189890Y0022900D01*
X0189123Y0023667D01*
X0189890Y0025969D02*
X0191425Y0025969D01*
X0192192Y0025202D01*
X0193727Y0025202D02*
X0194494Y0025969D01*
X0196796Y0025969D01*
X0196796Y0022133D01*
X0196029Y0021365D01*
X0195261Y0021365D01*
X0194494Y0022900D02*
X0196796Y0022900D01*
X0198331Y0023667D02*
X0199098Y0022900D01*
X0200632Y0022900D01*
X0201400Y0024435D02*
X0198331Y0024435D01*
X0198331Y0025202D02*
X0199098Y0025969D01*
X0200632Y0025969D01*
X0201400Y0025202D01*
X0201400Y0024435D01*
X0202934Y0025969D02*
X0204469Y0025969D01*
X0203702Y0026737D02*
X0203702Y0023667D01*
X0204469Y0022900D01*
X0206004Y0022900D02*
X0209073Y0027504D01*
X0211375Y0025969D02*
X0210608Y0025202D01*
X0210608Y0023667D01*
X0211375Y0022900D01*
X0213677Y0022900D01*
X0213677Y0022133D02*
X0213677Y0025969D01*
X0211375Y0025969D01*
X0215212Y0025969D02*
X0215212Y0023667D01*
X0215979Y0022900D01*
X0218281Y0022900D01*
X0218281Y0025969D01*
X0220583Y0025969D02*
X0222117Y0025969D01*
X0222885Y0025202D01*
X0222885Y0022900D01*
X0220583Y0022900D01*
X0219815Y0023667D01*
X0220583Y0024435D01*
X0222885Y0024435D01*
X0224419Y0024435D02*
X0225954Y0025969D01*
X0226721Y0025969D01*
X0228256Y0025202D02*
X0229023Y0025969D01*
X0231325Y0025969D01*
X0231325Y0027504D02*
X0231325Y0022900D01*
X0229023Y0022900D01*
X0228256Y0023667D01*
X0228256Y0025202D01*
X0224419Y0025969D02*
X0224419Y0022900D01*
X0232860Y0022900D02*
X0232860Y0027504D01*
X0232860Y0025969D02*
X0235162Y0025969D01*
X0235929Y0025202D01*
X0235929Y0023667D01*
X0235162Y0022900D01*
X0232860Y0022900D01*
X0237464Y0023667D02*
X0237464Y0025969D01*
X0237464Y0023667D02*
X0238231Y0022900D01*
X0240533Y0022900D01*
X0240533Y0025969D01*
X0242068Y0025969D02*
X0244370Y0025969D01*
X0245137Y0025202D01*
X0245137Y0022900D01*
X0246672Y0022900D02*
X0246672Y0025969D01*
X0248974Y0025969D01*
X0249741Y0025202D01*
X0249741Y0022900D01*
X0251276Y0023667D02*
X0252043Y0022900D01*
X0254345Y0022900D01*
X0254345Y0022133D02*
X0253578Y0021365D01*
X0252810Y0021365D01*
X0254345Y0022133D02*
X0254345Y0025969D01*
X0251276Y0025969D02*
X0251276Y0023667D01*
X0242068Y0022900D02*
X0242068Y0025969D01*
X0213677Y0022133D02*
X0212910Y0021365D01*
X0212142Y0021365D01*
X0198331Y0023667D02*
X0198331Y0025202D01*
X0194494Y0022900D02*
X0193727Y0023667D01*
X0193727Y0025202D01*
X0166870Y0027504D02*
X0166870Y0028271D01*
X0128504Y0025969D02*
X0128504Y0023667D01*
X0123900Y0022900D02*
X0123900Y0027504D01*
X0118529Y0025969D02*
X0117762Y0025969D01*
X0116227Y0025969D02*
X0113925Y0025969D01*
X0113158Y0025202D01*
X0113158Y0023667D01*
X0113925Y0022900D01*
X0116227Y0022900D01*
X0116227Y0022133D02*
X0116227Y0025969D01*
X0116227Y0022133D02*
X0115460Y0021365D01*
X0114693Y0021365D01*
X0108554Y0022900D02*
X0111623Y0027504D01*
X0107019Y0027504D02*
X0103950Y0022900D01*
X0102415Y0022900D02*
X0101648Y0022900D01*
X0101648Y0023667D01*
X0102415Y0023667D01*
X0102415Y0022900D01*
X0102415Y0025202D02*
X0101648Y0025202D01*
X0101648Y0025969D01*
X0102415Y0025969D01*
X0102415Y0025202D01*
X0100113Y0025969D02*
X0097812Y0025969D01*
X0097044Y0025202D01*
X0097812Y0024435D01*
X0099346Y0024435D01*
X0100113Y0023667D01*
X0099346Y0022900D01*
X0097044Y0022900D01*
X0095510Y0023667D02*
X0094742Y0022900D01*
X0092440Y0022900D01*
X0090906Y0022900D02*
X0090138Y0023667D01*
X0090138Y0026737D01*
X0089371Y0025969D02*
X0090906Y0025969D01*
X0092440Y0025969D02*
X0094742Y0025969D01*
X0095510Y0025202D01*
X0095510Y0023667D01*
X0092440Y0021365D02*
X0092440Y0025969D01*
X0087836Y0025969D02*
X0086302Y0025969D01*
X0087069Y0026737D02*
X0087069Y0023667D01*
X0087836Y0022900D01*
X0084767Y0022900D02*
X0084767Y0025202D01*
X0084000Y0025969D01*
X0082465Y0025969D01*
X0081698Y0025202D01*
X0081698Y0027504D02*
X0081698Y0022900D01*
X0218496Y0086000D02*
X0218496Y0087535D01*
X0218496Y0086767D02*
X0223100Y0086767D01*
X0223100Y0086000D02*
X0223100Y0087535D01*
X0222333Y0089069D02*
X0219263Y0089069D01*
X0218496Y0089837D01*
X0218496Y0091371D01*
X0219263Y0092139D01*
X0220031Y0093673D02*
X0218496Y0095208D01*
X0223100Y0095208D01*
X0223100Y0096742D02*
X0223100Y0093673D01*
X0222333Y0092139D02*
X0223100Y0091371D01*
X0223100Y0089837D01*
X0222333Y0089069D01*
X0246800Y0100300D02*
X0249102Y0100300D01*
X0249869Y0101067D01*
X0249869Y0104137D01*
X0249102Y0104904D01*
X0246800Y0104904D01*
X0246800Y0100300D01*
X0251404Y0101067D02*
X0251404Y0102602D01*
X0253706Y0102602D01*
X0254473Y0101835D01*
X0254473Y0101067D01*
X0253706Y0100300D01*
X0252171Y0100300D01*
X0251404Y0101067D01*
X0251404Y0102602D02*
X0252939Y0104137D01*
X0254473Y0104904D01*
X0256123Y0105225D02*
X0251477Y0105225D01*
X0251477Y0108375D01*
X0256123Y0108375D01*
X0256123Y0105225D01*
X0256123Y0113225D02*
X0251477Y0113225D01*
X0251477Y0116375D01*
X0256123Y0116375D01*
X0256123Y0113225D01*
X0256698Y0117300D02*
X0255163Y0117300D01*
X0254396Y0118067D01*
X0252861Y0118067D02*
X0252094Y0117300D01*
X0249792Y0117300D01*
X0249792Y0121904D01*
X0252094Y0121904D01*
X0252861Y0121137D01*
X0252861Y0118067D01*
X0254396Y0119602D02*
X0255931Y0120369D01*
X0256698Y0120369D01*
X0257465Y0119602D01*
X0257465Y0118067D01*
X0256698Y0117300D01*
X0254396Y0119602D02*
X0254396Y0121904D01*
X0257465Y0121904D01*
X0269496Y0120802D02*
X0269496Y0119267D01*
X0270263Y0118500D01*
X0273333Y0118500D01*
X0274100Y0119267D01*
X0274100Y0120802D01*
X0273333Y0121569D01*
X0271798Y0123104D02*
X0271798Y0126173D01*
X0269496Y0125406D02*
X0271798Y0123104D01*
X0270263Y0121569D02*
X0269496Y0120802D01*
X0269496Y0125406D02*
X0274100Y0125406D01*
X0280496Y0125406D02*
X0282798Y0123104D01*
X0282798Y0126173D01*
X0285100Y0125406D02*
X0280496Y0125406D01*
X0281263Y0121569D02*
X0280496Y0120802D01*
X0280496Y0118500D01*
X0285100Y0118500D01*
X0285100Y0120802D01*
X0284333Y0121569D01*
X0281263Y0121569D01*
X0286225Y0123123D02*
X0286225Y0118477D01*
X0289375Y0118477D01*
X0289375Y0123123D01*
X0286225Y0123123D01*
X0287123Y0129225D02*
X0282477Y0129225D01*
X0282477Y0132375D01*
X0287123Y0132375D01*
X0287123Y0129225D01*
X0287098Y0133100D02*
X0285563Y0133100D01*
X0284796Y0133867D01*
X0283261Y0133867D02*
X0283261Y0136937D01*
X0282494Y0137704D01*
X0280192Y0137704D01*
X0280192Y0133100D01*
X0282494Y0133100D01*
X0283261Y0133867D01*
X0286331Y0135402D02*
X0287098Y0135402D01*
X0287865Y0134635D01*
X0287865Y0133867D01*
X0287098Y0133100D01*
X0287098Y0135402D02*
X0287865Y0136169D01*
X0287865Y0136937D01*
X0287098Y0137704D01*
X0285563Y0137704D01*
X0284796Y0136937D01*
X0295292Y0127337D02*
X0295292Y0124267D01*
X0296059Y0123500D01*
X0297594Y0123500D01*
X0298361Y0124267D01*
X0299896Y0124267D02*
X0300663Y0123500D01*
X0302198Y0123500D01*
X0302965Y0124267D01*
X0302965Y0125035D01*
X0302198Y0125802D01*
X0301431Y0125802D01*
X0302198Y0125802D02*
X0302965Y0126569D01*
X0302965Y0127337D01*
X0302198Y0128104D01*
X0300663Y0128104D01*
X0299896Y0127337D01*
X0298361Y0127337D02*
X0297594Y0128104D01*
X0296059Y0128104D01*
X0295292Y0127337D01*
X0295898Y0107565D02*
X0297433Y0107565D01*
X0298200Y0106798D01*
X0298200Y0105263D01*
X0297433Y0104496D01*
X0297433Y0102961D02*
X0298200Y0102194D01*
X0298200Y0100659D01*
X0297433Y0099892D01*
X0294363Y0099892D01*
X0293596Y0100659D01*
X0293596Y0102194D01*
X0294363Y0102961D01*
X0293596Y0104496D02*
X0295898Y0104496D01*
X0295131Y0106031D01*
X0295131Y0106798D01*
X0295898Y0107565D01*
X0293596Y0107565D02*
X0293596Y0104496D01*
X0289375Y0103123D02*
X0289375Y0098477D01*
X0286225Y0098477D01*
X0286225Y0103123D01*
X0289375Y0103123D01*
X0285100Y0103104D02*
X0285100Y0106173D01*
X0285100Y0103104D02*
X0282031Y0106173D01*
X0281263Y0106173D01*
X0280496Y0105406D01*
X0280496Y0103871D01*
X0281263Y0103104D01*
X0281263Y0101569D02*
X0280496Y0100802D01*
X0280496Y0098500D01*
X0285100Y0098500D01*
X0285100Y0100802D01*
X0284333Y0101569D01*
X0281263Y0101569D01*
X0274100Y0100802D02*
X0274100Y0099267D01*
X0273333Y0098500D01*
X0270263Y0098500D01*
X0269496Y0099267D01*
X0269496Y0100802D01*
X0270263Y0101569D01*
X0270263Y0103104D02*
X0269496Y0103871D01*
X0269496Y0105406D01*
X0270263Y0106173D01*
X0271031Y0106173D01*
X0274100Y0103104D01*
X0274100Y0106173D01*
X0273333Y0101569D02*
X0274100Y0100802D01*
X0282477Y0092375D02*
X0282477Y0089225D01*
X0287123Y0089225D01*
X0287123Y0092375D01*
X0282477Y0092375D01*
X0283102Y0088304D02*
X0280800Y0088304D01*
X0280800Y0083700D01*
X0283102Y0083700D01*
X0283869Y0084467D01*
X0283869Y0087537D01*
X0283102Y0088304D01*
X0285404Y0086769D02*
X0286939Y0088304D01*
X0286939Y0083700D01*
X0288473Y0083700D02*
X0285404Y0083700D01*
X0299500Y0094267D02*
X0300267Y0093500D01*
X0301802Y0093500D01*
X0302569Y0094267D01*
X0304104Y0093500D02*
X0307173Y0093500D01*
X0305639Y0093500D02*
X0305639Y0098104D01*
X0304104Y0096569D01*
X0302569Y0097337D02*
X0301802Y0098104D01*
X0300267Y0098104D01*
X0299500Y0097337D01*
X0299500Y0094267D01*
X0226600Y0117000D02*
X0226600Y0118535D01*
X0226600Y0117767D02*
X0221996Y0117767D01*
X0221996Y0117000D02*
X0221996Y0118535D01*
X0222763Y0120069D02*
X0225833Y0120069D01*
X0226600Y0120837D01*
X0226600Y0122371D01*
X0225833Y0123139D01*
X0226600Y0124673D02*
X0223531Y0127742D01*
X0222763Y0127742D01*
X0221996Y0126975D01*
X0221996Y0125441D01*
X0222763Y0124673D01*
X0222763Y0123139D02*
X0221996Y0122371D01*
X0221996Y0120837D01*
X0222763Y0120069D01*
X0226600Y0124673D02*
X0226600Y0127742D01*
X0291396Y0179800D02*
X0296000Y0179800D01*
X0296000Y0182869D01*
X0296000Y0184404D02*
X0291396Y0184404D01*
X0291396Y0187473D01*
X0291396Y0189008D02*
X0291396Y0191310D01*
X0292163Y0192077D01*
X0295233Y0192077D01*
X0296000Y0191310D01*
X0296000Y0189008D01*
X0291396Y0189008D01*
X0293698Y0185939D02*
X0293698Y0184404D01*
X0296000Y0184404D02*
X0296000Y0187473D01*
X0303296Y0187673D02*
X0303296Y0184604D01*
X0307900Y0184604D01*
X0307900Y0187673D01*
X0307900Y0189208D02*
X0303296Y0189208D01*
X0303296Y0191510D01*
X0304063Y0192277D01*
X0307133Y0192277D01*
X0307900Y0191510D01*
X0307900Y0189208D01*
X0305598Y0186139D02*
X0305598Y0184604D01*
X0307900Y0183069D02*
X0307900Y0180000D01*
X0303296Y0180000D01*
X0304831Y0193812D02*
X0303296Y0195346D01*
X0307900Y0195346D01*
X0307900Y0193812D02*
X0307900Y0196881D01*
X0296000Y0196681D02*
X0296000Y0193612D01*
X0292931Y0196681D01*
X0292163Y0196681D01*
X0291396Y0195914D01*
X0291396Y0194379D01*
X0292163Y0193612D01*
D191*
X0286552Y0130800D03*
X0255552Y0114800D03*
X0252048Y0106800D03*
X0283048Y0090800D03*
D192*
X0283050Y0090800D03*
X0252050Y0106800D03*
X0255550Y0114800D03*
X0286550Y0130800D03*
D193*
X0287800Y0119048D03*
X0287800Y0099048D03*
D194*
X0287800Y0099050D03*
X0287800Y0119050D03*
D195*
X0297324Y0188391D03*
X0300276Y0188391D03*
X0309324Y0188391D03*
X0312276Y0188391D03*
D196*
X0310800Y0188391D03*
X0298800Y0188391D03*
D197*
X0245243Y0106758D02*
X0226357Y0106758D01*
X0226357Y0089842D01*
X0245243Y0089842D01*
X0245243Y0106758D01*
D198*
X0228221Y0092099D03*
D199*
X0241879Y0126800D02*
X0241918Y0126800D01*
D200*
X0239950Y0132391D02*
X0233650Y0132391D01*
X0233650Y0121209D02*
X0239950Y0121209D01*
D201*
X0239398Y0121800D02*
X0234241Y0121800D01*
X0234241Y0131839D01*
X0239398Y0131839D01*
X0239398Y0121800D01*
M02*
