G75*
%MOIN*%
%OFA0B0*%
%FSLAX25Y25*%
%IPPOS*%
%LPD*%
%AMOC8*
5,1,8,0,0,1.08239X$1,22.5*
%
%ADD10R,0.03962X0.03962*%
%ADD11C,0.01000*%
%ADD12C,0.01200*%
D10*
X0226800Y0114800D03*
X0226800Y0122800D03*
X0226800Y0130800D03*
X0239800Y0114800D03*
X0262800Y0115800D03*
X0262800Y0124800D03*
X0254900Y0130800D03*
X0262800Y0105800D03*
X0262800Y0096800D03*
X0255100Y0087000D03*
X0315800Y0090800D03*
X0321800Y0110800D03*
X0331800Y0110800D03*
X0315800Y0118800D03*
X0286800Y0171800D03*
X0286800Y0178800D03*
X0286800Y0184800D03*
X0286800Y0190800D03*
D11*
X0262800Y0190800D01*
X0262800Y0124800D01*
X0262800Y0115800D02*
X0268800Y0115800D01*
X0268800Y0184800D01*
X0286800Y0184800D01*
X0286800Y0178800D02*
X0274800Y0178800D01*
X0274800Y0105800D01*
X0262800Y0105800D01*
X0262800Y0096800D02*
X0280800Y0096800D01*
X0280800Y0171800D01*
X0286800Y0171800D01*
X0226800Y0130800D02*
X0226800Y0127800D01*
X0239800Y0127800D01*
X0239800Y0114800D01*
X0226800Y0114800D02*
X0226800Y0122800D01*
X0315800Y0118800D02*
X0315800Y0090800D01*
X0321800Y0110800D02*
X0331800Y0110800D01*
D12*
X0254900Y0130800D02*
X0254900Y0087000D01*
X0255100Y0087000D01*
M02*
